<svg width="189" height="65" viewBox="0 0 189 65" fill="none" xmlns="http://www.w3.org/2000/svg">
<path d="M66.99 27.0305H70.2V40.0305H66.99V27.0305ZM71.48 35.1405C71.48 31.9205 73.48 29.9905 76.48 29.9905C79.48 29.9905 81.48 31.9205 81.48 35.1405C81.48 38.3605 79.55 40.3105 76.48 40.3105C73.41 40.3105 71.48 38.4305 71.48 35.1405ZM78.3 35.1405C78.3 33.3705 77.61 32.3305 76.51 32.3305C75.41 32.3305 74.73 33.3305 74.73 35.1405C74.73 36.9505 75.41 37.9405 76.51 37.9405C77.61 37.9405 78.32 36.9505 78.32 35.1505L78.3 35.1405ZM82.76 40.7005H85.86C86.0011 41.0343 86.2476 41.3127 86.5618 41.4932C86.8759 41.6738 87.2406 41.7466 87.6 41.7005C88.83 41.7005 89.47 41.0405 89.47 40.0605V38.2605H89.48C89.2151 38.821 88.7867 39.2882 88.2512 39.6005C87.7158 39.9129 87.0983 40.0558 86.48 40.0105C84.13 40.0105 82.57 38.2205 82.57 35.1405C82.57 32.0605 84.06 30.1405 86.57 30.1405C87.2041 30.1066 87.8331 30.2701 88.3704 30.6086C88.9077 30.9471 89.3268 31.4439 89.57 32.0305H89.48V30.2205H92.66V39.9605C92.66 42.3105 90.58 43.7805 87.52 43.7805C84.74 43.7705 82.96 42.5005 82.78 40.7105L82.76 40.7005ZM89.48 35.1405C89.48 33.5705 88.76 32.5805 87.62 32.5805C86.48 32.5805 85.78 33.5805 85.78 35.1405C85.78 36.7005 86.47 37.6205 87.62 37.6205C88.77 37.6205 89.48 36.7705 89.48 35.1405ZM93.93 35.1405C93.93 31.9205 95.93 29.9905 98.93 29.9905C101.93 29.9905 103.93 31.9205 103.93 35.1405C103.93 38.3605 101.99 40.3105 98.93 40.3105C95.87 40.3105 93.95 38.4305 93.95 35.1405H93.93ZM100.75 35.1405C100.75 33.3705 100.05 32.3305 98.96 32.3305C97.87 32.3305 97.18 33.3305 97.18 35.1405C97.18 36.9505 97.86 37.9405 98.96 37.9405C100.06 37.9405 100.77 36.9505 100.77 35.1505L100.75 35.1405ZM105.23 27.8505C105.216 27.5235 105.3 27.1998 105.472 26.9211C105.643 26.6424 105.894 26.4213 106.192 26.2864C106.491 26.1514 106.822 26.1088 107.145 26.164C107.467 26.2191 107.766 26.3695 108.003 26.5958C108.239 26.8222 108.402 27.114 108.471 27.4339C108.541 27.7538 108.512 28.0871 108.391 28.3909C108.269 28.6946 108.059 28.955 107.788 29.1385C107.517 29.322 107.197 29.4202 106.87 29.4205C106.661 29.4258 106.453 29.3895 106.258 29.3138C106.063 29.238 105.885 29.1242 105.734 28.9791C105.583 28.834 105.463 28.6604 105.38 28.4684C105.297 28.2763 105.253 28.0697 105.25 27.8605L105.23 27.8505ZM105.23 30.2105H108.48V40.0705H105.28L105.23 30.2105ZM120.17 35.1405C120.17 38.3505 118.73 40.2105 116.28 40.2105C115.653 40.2492 115.029 40.0945 114.492 39.7672C113.956 39.4399 113.533 38.9559 113.28 38.3805H113.22V43.2405H110.01V30.2405H113.2V32.0005H113.26C113.504 31.4138 113.923 30.9165 114.46 30.5765C114.997 30.2365 115.625 30.0703 116.26 30.1005C118.78 30.0805 120.23 31.9305 120.23 35.1505L120.17 35.1405ZM116.9 35.1405C116.9 33.5805 116.17 32.5705 115.04 32.5705C113.91 32.5705 113.2 33.5705 113.19 35.1405C113.18 36.7105 113.91 37.7005 115.04 37.7005C116.17 37.7005 116.96 36.7705 116.96 35.1505L116.9 35.1405ZM125.65 29.9805C128.34 29.9805 130.01 31.2505 130.03 33.2905H127.1C127.1 32.5805 126.51 32.1405 125.63 32.1405C124.75 32.1405 124.33 32.4805 124.33 32.9905C124.33 33.5005 124.7 33.6605 125.44 33.8105L127.5 34.2305C129.5 34.6505 130.3 35.4505 130.3 36.9405C130.3 38.9405 128.45 40.3005 125.7 40.3005C122.95 40.3005 121.16 38.9805 121.03 36.9705H124.14C124.23 37.7005 124.81 38.1305 125.75 38.1305C126.69 38.1305 127.13 37.8305 127.13 37.3005C127.13 36.7705 126.83 36.6805 126.06 36.5205L124.2 36.1305C122.27 35.7205 121.26 34.7105 121.26 33.2005C121.32 31.2405 123 29.9905 125.71 29.9905L125.65 29.9805ZM141.05 40.0605H137.94V38.2105H137.88C137.706 38.8276 137.327 39.3669 136.805 39.7395C136.283 40.1122 135.65 40.296 135.01 40.2605C134.527 40.2762 134.045 40.1896 133.598 40.0062C133.15 39.8229 132.747 39.547 132.413 39.1967C132.08 38.8463 131.825 38.4295 131.664 37.9734C131.503 37.5174 131.44 37.0325 131.48 36.5505V30.2205H134.69V35.8605C134.69 37.0205 135.3 37.6505 136.3 37.6505C136.535 37.6487 136.766 37.5967 136.979 37.4978C137.192 37.3989 137.381 37.2555 137.533 37.0773C137.686 36.8991 137.799 36.6902 137.863 36.4648C137.928 36.2394 137.944 36.0026 137.91 35.7705V30.2205H141.11L141.05 40.0605ZM142.6 30.2105H145.72V32.1105H145.79C145.962 31.5018 146.332 30.9675 146.84 30.5912C147.349 30.2148 147.968 30.0176 148.6 30.0305C149.235 29.9753 149.868 30.1589 150.374 30.5454C150.881 30.9319 151.225 31.4936 151.34 32.1205H151.48C151.68 31.4902 152.082 30.9436 152.625 30.5657C153.167 30.1877 153.82 29.9996 154.48 30.0305C154.919 30.0138 155.357 30.09 155.764 30.2541C156.172 30.4181 156.54 30.6664 156.845 30.9827C157.15 31.2989 157.384 31.676 157.533 32.0892C157.683 32.5024 157.743 32.9424 157.71 33.3805V40.0705H154.48V34.2005C154.48 33.2005 154.01 32.6405 153.1 32.6405C152.898 32.6372 152.698 32.6776 152.513 32.7588C152.328 32.8401 152.163 32.9604 152.03 33.1114C151.896 33.2625 151.796 33.4407 151.737 33.6338C151.679 33.827 151.663 34.0305 151.69 34.2305V40.0705H148.63V34.1705C148.63 33.1705 148.14 32.6405 147.26 32.6405C147.056 32.6389 146.854 32.6809 146.668 32.7637C146.481 32.8466 146.315 32.9683 146.179 33.1208C146.044 33.2733 145.943 33.453 145.882 33.6479C145.822 33.8427 145.804 34.0482 145.83 34.2505V40.0705H142.62L142.6 30.2105Z" fill="black"/>
<path d="M60.64 27.8805C60.6401 25.8902 60.0391 23.9462 58.9157 22.3033C57.7922 20.6604 56.1988 19.395 54.3441 18.673C52.4893 17.951 50.4598 17.806 48.5213 18.257C46.5827 18.708 44.8256 19.7339 43.48 21.2005H31V47.5405H57.35V35.2305C58.3842 34.3054 59.2118 33.1727 59.7787 31.9063C60.3456 30.6398 60.6391 29.268 60.64 27.8805ZM55.57 27.8805C55.572 28.8342 55.291 29.7671 54.7626 30.5611C54.2341 31.355 53.482 31.9744 52.6015 32.3407C51.7209 32.7071 50.7515 32.8039 49.8158 32.6191C48.8802 32.4342 48.0204 31.976 47.3453 31.3023C46.6702 30.6286 46.2101 29.7698 46.0234 28.8345C45.8366 27.8992 45.9314 26.9296 46.296 26.0483C46.6605 25.1669 47.2783 24.4136 48.0711 23.8835C48.864 23.3534 49.7963 23.0705 50.75 23.0705C52.0266 23.0705 53.2511 23.5769 54.1547 24.4787C55.0584 25.3805 55.5674 26.6039 55.57 27.8805ZM52.28 42.4705H36.07V26.2705H41.01C40.9146 26.8019 40.8644 27.3405 40.86 27.8805C40.8626 30.5027 41.9055 33.0167 43.7596 34.8708C45.6138 36.725 48.1278 37.7678 50.75 37.7705C51.2626 37.7678 51.7743 37.7243 52.28 37.6405V42.4705Z" fill="black"/>
</svg>
