<svg width="60" height="60" viewBox="0 0 60 60" fill="none" xmlns="http://www.w3.org/2000/svg">
<path fill-rule="evenodd" clip-rule="evenodd" d="M0.254766 4.27117L0 4.54246V14.4079C0 24.1172 0.00374999 24.2772 0.234375 24.5078C0.45082 24.7243 0.624961 24.7422 2.50652 24.7422C5.13879 24.7422 5.08113 24.7778 5.13797 23.1121L5.17816 21.9297H7.92117H10.6641V24.332V26.7344H9.49219C7.80023 26.7344 7.85156 26.6543 7.85156 29.2943C7.85156 31.8968 7.79789 31.813 9.50426 31.8723L10.6641 31.9125V34.8678C10.6641 37.6798 10.6757 37.8354 10.903 38.0794C11.2255 38.4257 11.9479 38.431 12.2572 38.0895C12.4623 37.8631 12.4833 37.6009 12.5154 34.8668L12.5503 31.8906H18.2283H23.9062V35.2645C23.9062 38.9308 23.9757 39.4853 24.5732 40.5829C24.9898 41.3482 26.0998 42.3817 26.8976 42.747C27.2578 42.9119 27.8923 43.105 28.3075 43.1761L29.0625 43.3054V48.9652V54.625H27.0271C23.9364 54.625 22.1439 54.2383 19.9219 53.0919C18.5068 52.362 17.522 51.6178 16.3359 50.3825C13.926 47.8721 12.7351 45.0827 12.5501 41.5143C12.4752 40.068 12.4479 39.9295 12.198 39.7272C11.8103 39.4131 11.2335 39.4442 10.9021 39.7969C10.6386 40.0773 10.6324 40.1323 10.6955 41.6426C10.863 45.6561 12.3655 49.062 15.2338 51.9303C17.6899 54.3864 20.5263 55.8182 23.9648 56.3377C24.9247 56.4828 26.1646 56.5062 30.8203 56.4677C36.9491 56.4169 37.0882 56.4045 39.1329 55.7229C43.7111 54.1968 47.4635 50.4759 48.9851 45.9531C49.5546 44.2605 49.7006 43.2951 49.7696 40.7676L49.836 38.3359H50.9923C52.6576 38.3359 52.6172 38.397 52.6172 35.8846C52.6172 34.7942 52.5844 33.8166 52.5444 33.7123C52.4054 33.3502 51.849 33.1797 50.8066 33.1797H49.8047V31.8906V30.6016H52.3132H54.8218L54.862 31.784C54.9189 33.4497 54.8612 33.4141 57.4935 33.4141C59.375 33.4141 59.5492 33.3961 59.7656 33.1797C59.9963 32.9491 60 32.7891 60 23.0634V13.1815L59.7288 12.9266C59.4728 12.6862 59.3483 12.6719 57.5118 12.6719C56.4416 12.6719 55.4807 12.7047 55.3764 12.7446C55.0143 12.8836 54.8438 13.44 54.8438 14.4824V15.4844L51.709 15.4867C48.9211 15.4887 47.3875 15.5823 46.7178 15.7912C46.4043 15.889 46.1459 16.5726 46.2846 16.9375C46.4952 17.4913 46.877 17.6297 47.8002 17.4864C48.2505 17.4166 50.0196 17.3594 51.7315 17.3594H54.8438V23.043V28.7266L52.0605 28.7268C48.9997 28.7269 48.7375 28.7777 48.231 29.4671C48.0171 29.7583 47.9838 29.9982 47.9503 31.4886L47.9123 33.1797H42.2229H36.5334L36.5924 30.748C36.6438 28.627 36.69 28.1692 36.9544 27.1636C37.9179 23.4974 40.4155 20.4326 43.8545 18.6965C44.4169 18.4125 44.9633 18.0487 45.0687 17.8879C45.4194 17.3525 44.9698 16.5391 44.3229 16.5391C44.1438 16.5391 43.6032 16.7277 43.1217 16.9584C39.5441 18.6714 36.7267 21.8795 35.4627 25.6797C34.9161 27.3228 34.6875 28.9775 34.6875 31.2904V33.1797H33.6855C32.6432 33.1797 32.0868 33.3502 31.9478 33.7123C31.9078 33.8166 31.875 34.7842 31.875 35.8625C31.875 38.3807 31.8452 38.3359 33.5202 38.3359C34.1899 38.3359 34.6875 38.384 34.6875 38.4487C34.6875 38.823 34.1399 39.9123 33.7498 40.3144C32.8503 41.2411 32.5612 41.3242 30.2344 41.3242C28.345 41.3242 28.1456 41.3039 27.7013 41.0662C26.9159 40.6461 26.5194 40.2444 26.1396 39.4844L25.7812 38.7673V35.3289V31.8906H26.7851C28.5266 31.8906 28.5852 31.8065 28.59 29.299C28.5935 27.5035 28.5749 27.3279 28.3508 27.0432C28.118 26.747 28.0608 26.7344 26.9583 26.7344H25.8086L25.7461 23.248C25.701 20.7306 25.6322 19.5182 25.4988 18.8857C24.5266 14.2744 21.6299 10.4767 17.5063 8.40742C16.2811 7.79254 15.3335 7.45973 13.8867 7.13605C12.985 6.93438 12.2755 6.89207 8.99414 6.84449L5.15625 6.78871V5.79871C5.15625 4.7684 4.98434 4.21117 4.62363 4.07277C4.51934 4.03281 3.55102 4 2.47184 4C0.572227 4 0.501445 4.00867 0.254766 4.27117ZM3.28125 14.4297V22.9844H2.51953H1.75781V14.4297V5.875H2.51953H3.28125V14.4297ZM12.6054 8.81312C13.776 8.97602 15.2884 9.41746 16.3392 9.90285C19.0198 11.1414 21.5266 13.6716 22.7295 16.3524C23.6694 18.4472 23.9046 19.9437 23.9055 23.834L23.9062 26.7344H18.2303H12.5544L12.5174 23.9512C12.4639 19.9239 12.6864 20.1279 8.29102 20.077L5.15625 20.0407V14.3641V8.6875H8.42906C10.2291 8.6875 12.1084 8.7441 12.6054 8.81312ZM58.2422 23.1016V31.6562H57.4805H56.7188V23.1016V14.5469H57.4805H58.2422V23.1016ZM26.7188 29.2539V30.0156H18.1641H9.60938V29.2539V28.4922H18.1641H26.7188V29.2539ZM50.7422 35.8164V36.5781H42.2461H33.75V35.8164V35.0547H42.2461H50.7422V35.8164ZM47.9297 40.2542C47.9297 42.4315 47.7491 43.7092 47.2165 45.2987C45.8521 49.3711 42.5732 52.6282 38.4961 53.9609C36.9396 54.4697 35.703 54.625 33.2073 54.625H30.9375V48.9414V43.2578H31.4402C33.8516 43.2578 36.0964 41.2697 36.5017 38.7754L36.5732 38.3359H42.2514H47.9297V40.2542Z" fill="#D51818"/>
</svg>
