<svg width="60" height="60" viewBox="0 0 60 60" fill="none" xmlns="http://www.w3.org/2000/svg">
<path fill-rule="evenodd" clip-rule="evenodd" d="M19.323 8.23144C18.9877 8.5667 18.9092 9.0052 19.1253 9.33518C19.2258 9.48846 19.9567 10.1626 20.7496 10.8333C22.1329 12.0034 22.1924 12.0725 22.227 12.5458L22.2631 13.0389H19.2217H16.1804L8.11195 19.8098L0.0434375 26.5809L0.0080482 27.0619C-0.0217163 27.4669 0.0224617 27.5822 0.28753 27.7907C0.460726 27.9268 0.674351 28.0383 0.762355 28.0383C0.894889 28.0383 0.92231 28.8671 0.92231 32.881V37.7236L1.19347 37.9785C1.56752 38.3298 2.09859 38.3097 2.45459 37.9309L2.73865 37.6287L2.79724 32.1478L2.85583 26.667L9.53526 21.0679C13.2089 17.9883 16.2991 15.3957 16.4021 15.3062C16.5675 15.1629 17.4007 15.8245 23.5209 20.9596L30.4524 26.7753V38.4806V50.1859H26.822H23.1914L23.16 41.4461L23.1285 32.7063L22.7458 32.3645L22.363 32.0225H16.6758C10.5454 32.0225 10.5039 32.0264 10.154 32.6389C10.0367 32.8441 9.99684 34.7869 9.97106 41.5436L9.93814 50.1859H6.37284H2.80755L2.7731 45.6054L2.73865 41.0251L2.39729 40.7316C2.01703 40.4046 1.52369 40.4205 1.13511 40.7722C0.935786 40.9526 0.92231 41.2856 0.92231 46.0458V51.1267L1.32343 51.5645L1.72454 52.0022L20.102 52.0347C30.2096 52.0525 38.5975 52.0385 38.7416 52.0035C39.1453 51.9055 39.3986 51.4334 39.3076 50.9484C39.172 50.2255 38.971 50.1859 35.4386 50.1859H32.3273V39.1121V28.0383H43.3459H54.3645L54.3319 29.5809L54.2992 31.1234L53.5802 31.2698C51.3609 31.7221 49.3545 33.1077 48.0719 35.0741L47.4955 35.9579L47.0303 35.202C46.4459 34.2527 45.1112 32.9057 44.2452 32.3911C41.8282 30.9549 38.9189 30.6887 36.4685 31.6795C35.9389 31.8936 35.8332 31.9947 35.6197 32.491C34.7808 34.4411 34.8252 37.2445 35.7265 39.2453C37.225 42.5717 40.5876 44.6294 44.1605 44.4064C44.7741 44.3681 45.5397 44.2559 45.862 44.1573C46.1842 44.0585 46.4874 43.9772 46.5358 43.9765C46.5842 43.9758 46.6237 45.3694 46.6237 47.0736V50.1719L44.3281 50.2083C42.0773 50.2438 42.028 50.2499 41.8086 50.5211C41.4969 50.9063 41.5234 51.424 41.8725 51.7731L42.1601 52.0608H48.6163C55.6345 52.0608 55.458 52.0765 55.988 51.4028C56.2253 51.1011 56.2327 50.9711 56.2327 47.0635V43.0353L57.3195 41.9526C59.1528 40.1264 59.8576 38.55 59.9518 36.0653C60.0091 34.5539 59.8556 33.5841 59.3861 32.4928C59.0798 31.7805 58.6918 31.5963 56.5549 31.1482L56.2327 31.0806V29.5594V28.0383H57.1543C57.9151 28.0383 58.1309 27.9951 58.3908 27.7907C58.6561 27.582 58.7001 27.467 58.6703 27.0602C58.6356 26.5874 58.5845 26.5351 56.1926 24.5248L53.7502 22.4721L56.62 22.4135C59.2297 22.3602 59.512 22.3346 59.7361 22.1317C60.1502 21.7565 60.0703 21.1379 59.5431 20.639C59.3015 20.4104 56.3088 17.8839 52.893 15.0249C49.4771 12.1657 46.194 9.41557 45.597 8.91321L44.5119 8H37.2425H29.973L29.6855 8.28768C29.3364 8.63666 29.3099 9.15437 29.6215 9.53967C29.8325 9.80052 29.932 9.81856 31.3673 9.85466L32.8894 9.89309L35.6044 12.169L38.3194 14.4451H33.1451H27.9707L25.276 12.1893L22.5811 9.93352L24.554 9.87329C25.639 9.84024 26.6142 9.77052 26.7211 9.71837C26.9969 9.58396 27.1987 9.0291 27.106 8.65974C26.9447 8.01676 26.8417 8 23.0438 8C19.7256 8 19.543 8.01137 19.323 8.23144ZM46.5405 12.1369L49.2111 14.3865L45.2192 14.4173L41.2274 14.4481L38.6816 12.3184C37.2814 11.1472 36.0586 10.1182 35.9642 10.0318C35.8206 9.90047 36.4496 9.87598 39.8313 9.88114L43.8699 9.88723L46.5405 12.1369ZM29.8665 18.495C32.2834 20.5287 34.383 22.2424 34.5321 22.3031C34.6813 22.3638 35.2483 22.4135 35.7919 22.4135H36.7803V23.1111C36.7803 23.4948 36.8398 23.9395 36.9127 24.0992C37.1781 24.6819 38.1163 24.7715 38.4822 24.2489C38.5935 24.09 38.6552 23.7185 38.6552 23.2077V22.4135H44.6902H50.7251V23.2838C50.7251 24.0845 50.7498 24.1737 51.0339 24.3971C51.4626 24.7344 51.8531 24.7019 52.2601 24.2949L52.6053 23.9497L53.8037 24.9563C54.463 25.5098 55.0523 26.0079 55.1136 26.0631C55.1753 26.1187 50.1972 26.1622 43.9226 26.1607L32.6203 26.1581L26.0581 20.6477C22.4488 17.617 19.4186 15.0607 19.3243 14.967C19.174 14.8179 19.5476 14.7966 22.3124 14.797L25.4721 14.7973L29.8665 18.495ZM42.9425 18.3262C44.2601 19.4296 45.3669 20.3787 45.4019 20.4355C45.4383 20.4943 43.2593 20.5367 40.332 20.5341L35.1983 20.5298L32.7005 18.4248L30.2026 16.32H35.3746H40.5467L42.9425 18.3262ZM53.9918 18.4L56.469 20.48L52.4798 20.5108L48.4905 20.5416L46.0338 18.4762C44.6825 17.3402 43.5769 16.3903 43.5769 16.3653C43.5769 16.3404 45.3629 16.32 47.5458 16.32H51.5145L53.9918 18.4ZM41.2212 33.1401C43.0652 33.5748 44.9054 35.0326 45.7273 36.7098C46.3662 38.0136 46.6234 39.4436 46.4297 40.6155L46.3556 41.0645L43.4136 38.1326C41.7955 36.5201 40.3265 35.1461 40.1493 35.0793C39.7529 34.9299 39.3361 35.07 39.0772 35.4395C38.6596 36.0358 38.7234 36.1229 41.954 39.362L45.0186 42.4346L44.5768 42.5174C43.8754 42.649 42.2962 42.4927 41.4843 42.2112C40.4659 41.8583 39.1147 40.9278 38.4686 40.1347C37.3779 38.7959 36.8851 37.4154 36.89 35.7138C36.8926 34.8381 37.1077 33.5309 37.2772 33.3614C37.3008 33.3379 37.6074 33.2413 37.9585 33.147C38.7949 32.9221 40.283 32.919 41.2212 33.1401ZM56.9941 33.1407C57.3756 33.2399 57.7064 33.34 57.7292 33.3629C57.8971 33.5308 58.1107 34.8411 58.1123 35.7138C58.1155 37.4239 57.626 38.7973 56.5365 40.1347C55.8879 40.931 54.5345 41.8612 53.5208 42.2076C52.697 42.4889 51.1209 42.6474 50.4313 42.518L49.9865 42.4346L53.051 39.362C56.2817 36.1229 56.3455 36.0358 55.9279 35.4395C55.6698 35.0711 55.252 34.9297 54.8608 35.0785C54.6864 35.1449 53.2296 36.5167 51.6236 38.1272C50.0176 39.7376 48.6813 41.0329 48.654 41.0058C48.6268 40.9785 48.5756 40.594 48.5403 40.1513C48.4561 39.0926 48.725 37.8375 49.2777 36.7098C50.0869 35.059 51.9339 33.5805 53.7302 33.1456C54.6535 32.9221 56.1464 32.9198 56.9941 33.1407ZM21.3121 42.0417V50.1859H16.5662H11.8203V42.0417V33.8974H16.5662H21.3121V42.0417ZM13.7322 39.7574C13.317 39.9247 13.2265 40.255 13.2265 41.6034C13.2265 42.786 13.2464 42.8984 13.4977 43.1345C13.8348 43.4511 14.3961 43.4648 14.7662 43.1654C15.0216 42.9589 15.0459 42.8421 15.0825 41.6435L15.1221 40.3452L14.7692 39.9922C14.4066 39.6297 14.1779 39.5779 13.7322 39.7574ZM49.1431 44.1573C50.0946 44.4488 51.8112 44.5067 52.8953 44.2837C53.4096 44.178 53.949 44.0592 54.0941 44.0197L54.3577 43.9479V47.0668V50.1859H51.3696H48.3814V47.0805C48.3814 45.3726 48.4209 43.9758 48.4693 43.9765C48.5177 43.9772 48.8209 44.0585 49.1431 44.1573Z" fill="#D51818"/>
</svg>
