<svg width="60" height="60" viewBox="0 0 60 60" fill="none" xmlns="http://www.w3.org/2000/svg">
<path fill-rule="evenodd" clip-rule="evenodd" d="M33.6273 2.04778C32.412 2.19994 31.3873 2.73286 30.5705 3.63762C30.1685 4.08285 25.3568 12.2905 24.9226 13.2714C24.3817 14.4935 24.4535 16.1811 25.1002 17.4538L25.3834 18.0111L24.0049 20.3938C23.2467 21.7043 22.5932 22.8812 22.5525 23.0094C22.4646 23.2862 22.7553 23.8988 23.0235 24.0017C23.4544 24.1671 23.8789 24.0717 24.1508 23.7484C24.3015 23.569 24.946 22.5139 25.5828 21.4038C26.2196 20.2937 26.7685 19.3854 26.8023 19.3854C26.9784 19.3854 34.6798 23.9162 34.6729 24.0159C34.6685 24.0803 33.4687 25.9207 32.0067 28.1055L29.3485 32.0778L28.3832 32.4047C23.7755 33.9647 20.2226 37.9797 19.1848 42.7991L18.9399 43.9362L17.3076 45.7574C16.4098 46.7591 15.6393 47.5907 15.5955 47.6054C15.4969 47.6385 11.7644 45.493 11.7644 45.4032C11.7644 45.3677 14.1778 41.1571 17.1276 36.0466C20.9182 29.479 22.4907 26.6523 22.4907 26.4057C22.4907 25.977 22.029 25.4812 21.6298 25.4812C21.4728 25.4812 21.2281 25.5755 21.0857 25.6907C20.9434 25.8059 20.051 27.2434 19.1026 28.8851L17.3781 31.8701L14.2782 31.9379C11.0241 32.009 10.3969 32.0914 8.71647 32.6686C6.78468 33.3319 5.16776 34.3805 3.65389 35.952C2.51338 37.1359 1.95432 37.9201 1.27522 39.288C0.282656 41.2874 -0.0757087 43.0653 0.0130326 45.5495C0.0833691 47.5182 0.403986 48.9342 1.13045 50.4846C3.17138 54.8399 7.2387 57.6635 12.0575 58.0702C13.8493 58.2215 46.1373 58.2215 47.9291 58.0702C53.5573 57.5951 58.2052 53.7348 59.6149 48.3647C59.9827 46.9641 60.1143 44.3789 59.8897 42.9705C59.4747 40.3689 57.809 37.0069 56.8282 36.7914C56.3024 36.676 55.854 37.0275 55.8057 37.5929C55.7769 37.9319 55.8681 38.1623 56.26 38.7393C58.2055 41.6042 58.7023 45.3989 57.563 48.6927C57.0214 50.2584 56.2419 51.5152 55.029 52.7787C51.1918 56.7757 45.253 57.3961 40.6024 54.2855C39.5582 53.5872 37.996 51.9331 37.3341 50.825C36.6737 49.7196 36.0408 47.966 35.8449 46.6994C35.6613 45.5121 35.7716 43.3579 36.0748 42.2115C37.1107 38.2931 40.2009 35.2139 44.1778 34.1373C45.0135 33.911 45.4579 33.868 46.9327 33.8705C49.3839 33.8747 50.7486 34.2447 52.8156 35.4651C53.3434 35.7767 53.8811 36.0317 54.0107 36.0317C54.4146 36.0317 54.8582 35.5515 54.8711 35.1004C54.8803 34.7718 54.8 34.6253 54.4393 34.3136C53.8959 33.8439 52.2316 32.974 51.2364 32.6398C49.3236 31.9972 49.5486 32.0117 40.3475 31.9385L31.7694 31.8701L34.0581 28.4119C35.3169 26.5099 36.3634 24.9363 36.3836 24.915C36.4039 24.8938 36.8075 24.9414 37.2805 25.0207C37.9331 25.1304 38.3197 25.1335 38.883 25.0342C40.7704 24.7015 41.7321 23.8527 43.2692 21.163C43.8333 20.176 44.327 19.2399 44.3664 19.0829C44.4568 18.723 44.1555 18.2433 43.7398 18.0853C43.11 17.8459 42.8544 18.098 41.7243 20.0734C40.2186 22.7055 39.6671 23.1853 38.1404 23.1918C37.4904 23.1946 37.1974 23.1336 36.7336 22.899C35.2482 22.148 27.666 17.6841 27.3302 17.363C26.4297 16.5018 26.152 14.9532 26.7049 13.8757C27.0524 13.1985 30.7962 6.69632 31.4749 5.59122C32.3318 4.19586 33.6022 3.5912 34.9422 3.94089C35.6694 4.13068 44.369 9.11449 44.9834 9.69336C45.5403 10.218 45.9336 11.1048 45.935 11.8387C45.9366 12.6031 45.757 13.098 45.0121 14.3832C44.3577 15.5122 44.2831 15.9201 44.657 16.3216C44.8493 16.5278 45.0066 16.5767 45.3889 16.5488C45.8287 16.5167 45.9135 16.4565 46.2632 15.9272C46.4762 15.6048 46.8897 14.8626 47.1822 14.278C47.6415 13.3598 47.7226 13.0864 47.7787 12.2701C47.8871 10.6874 47.2733 9.16115 46.1374 8.18886C45.5402 7.67763 36.8974 2.6821 35.9916 2.32455C35.2127 2.01706 34.5205 1.93606 33.6273 2.04778ZM33.9253 5.52381C33.41 5.64807 33.1147 6.01347 32.0225 7.87891C31.0184 9.5936 30.8788 9.89886 30.8759 10.3859C30.8731 10.8496 30.9302 10.9972 31.2242 11.286C31.5707 11.6266 39.2936 16.1507 40.2976 16.6013C40.7304 16.7956 40.8825 16.8122 41.2424 16.7044C41.8357 16.5267 42.0098 16.3051 43.2271 14.1791C44.3619 12.1972 44.4749 11.8132 44.107 11.1905C43.8786 10.8039 43.865 10.7953 39.1956 8.10293C34.4357 5.3584 34.4936 5.38677 33.9253 5.52381ZM38.4583 9.83942C40.5401 11.0426 42.2534 12.0353 42.2655 12.0453C42.2974 12.0717 40.8958 14.5019 40.7796 14.6215C40.7255 14.6774 38.9289 13.7112 36.7656 12.4629L32.8498 10.2031L33.6183 8.87253C34.0777 8.07726 34.4445 7.56404 34.53 7.59674C34.6085 7.62699 36.3763 8.63608 38.4583 9.83942ZM29.0127 13.2981C28.7728 13.4867 28.7038 13.6437 28.7038 14.0007C28.7038 14.3991 28.7638 14.5039 29.1542 14.7867C29.9127 15.3361 30.4835 15.5475 30.8414 15.4115C31.5695 15.1346 31.6968 14.2178 31.0687 13.7753C30.5717 13.4253 29.7885 13.0551 29.5449 13.0551C29.422 13.0551 29.1825 13.1645 29.0127 13.2981ZM32.4636 15.4741C32.1487 15.8743 32.1557 16.2531 32.4844 16.6141C32.926 17.0991 38.6717 20.3579 39.0968 20.3645C39.7579 20.3745 40.1651 19.7964 39.9438 19.1617C39.8401 18.8645 39.3486 18.5388 36.664 16.9887C33.2101 14.9943 32.9226 14.8905 32.4636 15.4741ZM15.7063 34.7715C13.164 39.107 10.1076 44.4905 9.98253 44.8536C9.80247 45.3761 9.92486 46.1029 10.2721 46.5728C10.5451 46.9424 14.663 49.3627 15.1933 49.4653C15.781 49.579 16.3591 49.4199 16.8158 49.0189C17.0446 48.8181 18.0221 47.7671 18.988 46.6836C20.7398 44.7184 20.7445 44.7117 20.8596 43.9774C21.2991 41.1753 22.7144 38.5157 24.7289 36.7067C25.8166 35.7298 27.4158 34.7362 28.6743 34.2551L29.7002 33.863L34.9168 33.8371C39.8814 33.8123 40.1195 33.8209 39.8445 34.0129C38.1681 35.1834 36.9803 36.3763 36.0128 37.8604L35.3767 38.8364L29.9198 38.87L24.4627 38.9038L24.2387 39.1805C23.9434 39.5453 23.9486 40.1858 24.2491 40.4863C24.4763 40.7135 24.6398 40.7208 29.5244 40.7208C32.2968 40.7208 34.5651 40.7405 34.5651 40.7646C34.5651 40.7888 34.4901 41.0212 34.3983 41.2813C33.785 43.0197 33.715 46.1272 34.2429 48.194L34.5197 49.2784H29.5761C24.7523 49.2784 24.625 49.2843 24.3236 49.5214C23.8872 49.8645 23.8872 50.5679 24.3236 50.911C24.6258 51.1488 24.7475 51.154 29.9811 51.154H35.3298L36.0318 52.2233C36.8548 53.4769 38.2042 54.8797 39.3927 55.7169L40.2374 56.3121L26.5871 56.3111C12.8716 56.3102 11.598 56.277 10.1232 55.8828C9.14213 55.6205 7.36437 54.7726 6.5065 54.1579C5.76316 53.6252 4.33521 52.2064 3.86689 51.535L3.60113 51.154H6.5194H9.43754L9.71045 50.8637C10.0842 50.4658 10.06 49.8907 9.65476 49.5422C9.3522 49.2819 9.30402 49.2784 5.97816 49.2784H2.60822L2.35934 48.4871C1.95268 47.194 1.82959 46.3653 1.83276 44.941C1.83569 43.5855 2.09605 42.0881 2.49439 41.1346L2.6673 40.7208H6.07288C9.32219 40.7208 9.48924 40.71 9.71291 40.4863C10.0693 40.13 10.0637 39.5111 9.7006 39.1382C9.48678 38.9185 9.29159 38.9014 6.60333 38.867C5.02533 38.8467 3.7343 38.7997 3.7343 38.7626C3.7343 38.7256 4.02116 38.3403 4.37167 37.9063C5.36541 36.6764 6.5725 35.727 8.13034 34.9499C9.93142 34.0514 11.082 33.8297 14.0189 33.8154L16.2734 33.8044L15.7063 34.7715ZM45.4087 36.551C43.5585 36.917 42.2275 37.6256 40.8856 38.9593C40.0468 39.7929 39.7883 40.1447 39.3324 41.0728C38.5688 42.6274 38.3793 43.4256 38.3857 45.0582C38.3918 46.5998 38.585 47.4754 39.2058 48.7746C40.0302 50.4996 41.4156 51.8798 43.1814 52.735C44.6325 53.4379 45.7424 53.6627 47.3895 53.5877C49.5966 53.487 51.4156 52.6985 52.9693 51.1689C54.2755 49.8828 55.1385 48.2629 55.4391 46.5315C55.8275 44.2963 55.0565 40.9735 54.062 40.5954C53.4913 40.3784 52.8526 40.8073 52.8526 41.4076C52.8526 41.5359 53.0191 42.0537 53.2226 42.5582C53.5266 43.312 53.6023 43.6849 53.647 44.6486C53.7447 46.7558 53.1568 48.291 51.6904 49.7574C50.3144 51.1334 48.8835 51.7362 46.9866 51.7388C45.1264 51.7414 43.5605 51.1162 42.2918 49.8645C41.0271 48.6165 40.344 47.1602 40.2316 45.4717C40.0965 43.4442 40.7359 41.7942 42.2331 40.3055C44.3515 38.1991 46.9794 37.7146 49.8141 38.9077C50.5504 39.2176 50.8557 39.21 51.2408 38.8718C51.5433 38.606 51.5109 37.8919 51.1821 37.584C50.2475 36.7088 47.2878 36.1793 45.4087 36.551ZM45.8107 40.7563C44.6349 41.0899 43.4509 42.09 42.9851 43.1428C42.7857 43.5936 42.7722 43.7231 42.8944 44.0178C43.2804 44.9497 44.2867 44.7253 44.8979 43.5709C45.1399 43.1142 46.0303 42.5834 46.677 42.5105C47.7067 42.3944 48.7505 42.9684 49.2342 43.9164C49.5758 44.586 49.5101 45.7836 49.0984 46.3918C48.6062 47.1191 48.0151 47.4488 47.1127 47.4998C45.9675 47.5645 45.3731 47.2138 44.5058 45.9618C44.1765 45.4864 43.4132 45.4905 43.0493 45.9699C42.4467 46.7631 43.7755 48.539 45.4378 49.1627C46.3928 49.5209 47.8316 49.4607 48.7702 49.0233C49.7007 48.5897 50.4369 47.8693 50.8891 46.95C51.2421 46.2326 51.2701 46.089 51.2701 45.0014C51.2701 43.9414 51.2368 43.7596 50.9279 43.1303C50.2168 41.6821 48.8101 40.7472 47.2016 40.6539C46.6989 40.6248 46.1257 40.667 45.8107 40.7563ZM4.49101 44.4082C4.13722 44.7619 4.11178 45.3185 4.43474 45.6414C5.07433 46.281 6.59454 46.0039 6.66921 45.2341C6.7494 44.4081 6.44414 44.1204 5.48744 44.1204C4.89122 44.1204 4.73297 44.1661 4.49101 44.4082ZM26.1248 44.3548C25.8009 44.6787 25.8074 45.4156 26.1367 45.7141C26.3564 45.9132 26.6083 45.9408 28.452 45.969C30.6984 46.0032 30.9883 45.9434 31.2526 45.3922C31.4295 45.0234 31.2572 44.4122 30.9265 44.2352C30.8086 44.1721 29.7327 44.1204 28.5357 44.1204C26.5155 44.1204 26.3423 44.1373 26.1248 44.3548Z" fill="#D51818"/>
</svg>
