<svg width="30" height="30" viewBox="0 0 30 30" fill="none" xmlns="http://www.w3.org/2000/svg">
<g clip-path="url(#clip0_105_438)">
<path d="M8.74982 12.5H12.4998V8.75L8.12482 4.375C9.52435 3.70659 11.0967 3.48851 12.6253 3.75078C14.1539 4.01305 15.5637 4.74277 16.6604 5.83947C17.757 6.93616 18.4868 8.34588 18.749 9.8745C19.0113 11.4031 18.7932 12.9755 18.1248 14.375L25.6248 21.875C26.1221 22.3723 26.4015 23.0467 26.4015 23.75C26.4015 24.4533 26.1221 25.1277 25.6248 25.625C25.1275 26.1223 24.4531 26.4017 23.7498 26.4017C23.0466 26.4017 22.3721 26.1223 21.8748 25.625L14.3748 18.125C12.9753 18.7934 11.4029 19.0115 9.87432 18.7492C8.3457 18.487 6.93598 17.7572 5.83928 16.6605C4.74259 15.5638 4.01287 14.1541 3.7506 12.6255C3.48833 11.0969 3.70641 9.52454 4.37482 8.125L8.74982 12.5Z" stroke="#D51818" stroke-width="2" stroke-linecap="round" stroke-linejoin="round"/>
</g>
<defs>
<clipPath id="clip0_105_438">
<rect width="30" height="30" fill="white"/>
</clipPath>
</defs>
</svg>
