<svg width="20" height="20" viewBox="0 0 20 20" fill="none" xmlns="http://www.w3.org/2000/svg">
<path d="M10.2033 3.33333C10.6484 3.33578 11.7619 3.34655 12.9451 3.39394L13.3646 3.41223C14.5559 3.46863 15.7461 3.56498 16.3364 3.72958C17.1239 3.95079 17.7428 4.59625 17.9519 5.41443C18.285 6.71367 18.3267 9.2495 18.3319 9.86317L18.3326 9.99033V9.99925C18.3326 9.99925 18.3326 10.0023 18.3326 10.0082L18.3319 10.1354C18.3267 10.7491 18.285 13.2849 17.9519 14.5842C17.7399 15.4053 17.1209 16.0508 16.3364 16.269C15.7461 16.4336 14.5559 16.5299 13.3646 16.5863L12.9451 16.6046C11.7619 16.652 10.6484 16.6628 10.2033 16.6652L10.0079 16.6659H9.99927C9.99927 16.6659 9.99635 16.6659 9.9906 16.6659L9.79544 16.6652C8.85344 16.6601 4.91479 16.6175 3.66211 16.269C2.87469 16.0477 2.25579 15.4023 2.04658 14.5842C1.71352 13.2849 1.67189 10.7491 1.66669 10.1354V9.86317C1.67189 9.2495 1.71352 6.71367 2.04658 5.41443C2.25869 4.59322 2.87759 3.94777 3.66211 3.72958C4.91479 3.38102 8.85344 3.33852 9.79544 3.33333H10.2033ZM8.33261 7.08262V12.9159L13.3326 9.99925L8.33261 7.08262Z" fill="black"/>
</svg>
