<svg width="20" height="20" viewBox="0 0 20 20" fill="none" xmlns="http://www.w3.org/2000/svg">
<path d="M1.78959 9.84158C6.1624 7.93645 9.07831 6.68045 10.5372 6.07361C14.7029 4.34097 15.5685 4.03999 16.1326 4.03005C16.2567 4.02787 16.5342 4.05862 16.7139 4.20445C16.8656 4.32758 16.9074 4.49393 16.9274 4.61067C16.9474 4.72742 16.9722 4.99337 16.9525 5.20117C16.7267 7.57303 15.75 13.3289 15.2531 15.9854C15.0428 17.1095 14.6288 17.4863 14.228 17.5233C13.3569 17.6034 12.6954 16.9476 11.8517 16.3946C10.5316 15.5292 9.78573 14.9904 8.50423 14.1459C7.02327 13.17 7.98332 12.6336 8.82731 11.757C9.04823 11.5276 12.8862 8.03664 12.9605 7.71996C12.9697 7.68035 12.9784 7.53272 12.8906 7.45476C12.803 7.3768 12.6736 7.40346 12.5801 7.42467C12.4477 7.45472 10.3386 8.84867 6.25302 11.6067C5.65438 12.0177 5.11215 12.218 4.62634 12.2075C4.09075 12.1959 3.06052 11.9047 2.29465 11.6558C1.35527 11.3503 0.608673 11.1889 0.673685 10.6703C0.707547 10.4003 1.07951 10.124 1.78959 9.84158Z" fill="black"/>
</svg>
