<svg width="47" height="43" viewBox="0 0 47 43" fill="none" xmlns="http://www.w3.org/2000/svg">
<path opacity="0.9" d="M13 11.8602C13 6.28182 18.0225 2.04702 23.5207 2.98956L42.6759 6.27331C44.5962 6.60251 46 8.26744 46 10.2158V19.1398C46 24.7182 40.9775 28.953 35.4793 28.0104L16.3241 24.7267C14.4038 24.3975 13 22.7326 13 20.7842V11.8602Z" stroke="#FF1616" stroke-width="2"/>
<path opacity="0.7" d="M7 17.8602C7 12.2818 12.0225 8.04702 17.5207 8.98956L36.6759 12.2733C38.5962 12.6025 40 14.2674 40 16.2158V25.1398C40 30.7182 34.9775 34.953 29.4793 34.0104L10.3241 30.7267C8.4038 30.3975 7 28.7326 7 26.7842V17.8602Z" stroke="#FF1616" stroke-width="2"/>
<path opacity="0.4" d="M1 23.8602C1 18.2818 6.02254 14.047 11.5207 14.9896L30.6759 18.2733C32.5962 18.6025 34 20.2674 34 22.2158V31.1398C34 36.7182 28.9775 40.953 23.4793 40.0104L4.32414 36.7267C2.4038 36.3975 1 34.7326 1 32.7842V23.8602Z" stroke="#FF1616" stroke-width="2"/>
</svg>
