<svg width="55" height="32" viewBox="0 0 55 32" fill="none" xmlns="http://www.w3.org/2000/svg">
<path fill-rule="evenodd" clip-rule="evenodd" d="M10.0475 0.168419C7.49385 0.637121 5.17619 1.83517 3.3184 3.64683C2.17353 4.76322 1.54563 5.62657 0.936494 6.92183C0.184908 8.51976 0 9.41502 0 11.4564C0 13.5701 0.189489 14.4342 1.03325 16.1696C2.03801 18.2359 3.70564 20.0033 5.79929 21.2208C6.76729 21.7838 8.82262 22.5314 9.72604 22.6492C10.0468 22.691 10.3535 22.7833 10.4077 22.8544C10.4618 22.9256 11.1996 24.7214 12.0472 26.8451C12.8948 28.9689 13.685 30.8468 13.8029 31.0183C14.169 31.5504 14.8845 31.899 15.6105 31.899C16.7426 31.899 17.3941 31.3902 17.9245 30.0918C18.1182 29.6178 18.8673 27.8758 19.5892 26.2205C22.5182 19.5043 23.8649 15.8281 24.2366 13.5344C24.713 10.5939 24.0104 7.31649 22.3763 4.85589C20.7232 2.36678 17.716 0.576361 14.4014 0.107659C13.23 -0.0579254 11.1199 -0.0285104 10.0475 0.168419ZM40.8086 0.155245C35.8889 1.10094 32.015 4.49803 30.9084 8.83707C30.5293 10.3238 30.5077 12.4202 30.8564 13.8763C31.3435 15.9101 32.2754 17.651 33.6539 19.1026C35.3824 20.9228 37.386 22.0434 39.9735 22.6368L41.0848 22.8918L42.6672 26.8432C43.5425 29.0287 44.3878 30.9706 44.5588 31.1885C45.1635 31.9589 46.3288 32.2226 47.2496 31.7975C47.7785 31.5534 48.3031 30.9517 48.5198 30.3406C48.6035 30.1046 49.2989 28.4805 50.0652 26.7315C52.8072 20.4726 54.5051 15.9403 54.8409 13.983C55.0563 12.7273 55.0525 10.5913 54.8327 9.41343C54.2588 6.33797 52.5276 3.62457 50.0541 1.92386C49.1981 1.33512 47.7145 0.676189 46.5384 0.362282C45.6291 0.119584 45.1474 0.0663202 43.5547 0.0327036C42.2237 0.00453832 41.4019 0.0412207 40.8086 0.155245ZM14.6932 3.56733C16.3155 3.8952 17.6882 4.65078 18.9314 5.90027C20.2924 7.2681 20.9911 8.95382 21.1167 11.1725C21.2288 13.1512 20.9526 14.2775 19.3328 18.4488C18.6317 20.2539 16.698 24.9106 15.9303 26.6424L15.7182 27.121L14.2227 23.4499L12.7271 19.7789L11.5141 19.6451C6.33636 19.0743 2.78624 15.2307 3.28242 10.733C3.48275 8.91782 4.25791 7.39235 5.67561 6.02338C7.98131 3.79708 11.3245 2.88648 14.6932 3.56733ZM45.2632 3.45864C46.9982 3.81957 48.2625 4.50541 49.539 5.77796C50.5361 6.77215 51.1721 7.95066 51.5577 9.51939C51.7593 10.3397 51.7858 10.7089 51.7403 12.0747C51.6918 13.5315 51.6509 13.7834 51.2722 14.9555C50.5613 17.156 46.7327 26.6129 46.4269 26.9237C46.3761 26.9754 45.9139 25.9822 45.3998 24.7168C44.8858 23.4513 44.2192 21.8205 43.9187 21.0926L43.3721 19.7693L42.4578 19.6888C39.7906 19.4536 37.5638 18.4098 35.9258 16.6269C33.4109 13.8896 33.1987 9.91257 35.4081 6.9249C36.6264 5.27757 38.7305 3.97061 40.9214 3.50078C42.1453 3.2382 44.1122 3.21912 45.2632 3.45864Z" fill="#FF1616"/>
</svg>
