<svg width="20" height="20" viewBox="0 0 20 20" fill="none" xmlns="http://www.w3.org/2000/svg">
<g clip-path="url(#clip0_16_238)">
<path d="M6.86915 6.1166L1.55249 6.88744L1.45832 6.9066C1.31577 6.94445 1.18582 7.01944 1.08173 7.12394C0.977646 7.22843 0.903158 7.35868 0.865873 7.50137C0.828589 7.64407 0.829844 7.79411 0.869511 7.93616C0.909178 8.07822 0.985835 8.2072 1.09165 8.30994L4.94332 12.0591L4.03499 17.3549L4.02415 17.4466C4.01543 17.594 4.04604 17.7411 4.11286 17.8729C4.17968 18.0046 4.28031 18.1162 4.40443 18.1962C4.52856 18.2762 4.67173 18.3218 4.81928 18.3284C4.96683 18.3349 5.11346 18.3021 5.24415 18.2333L9.99916 15.7333L14.7433 18.2333L14.8267 18.2716C14.9642 18.3258 15.1137 18.3424 15.2598 18.3197C15.4059 18.2971 15.5433 18.236 15.658 18.1427C15.7727 18.0494 15.8605 17.9272 15.9124 17.7888C15.9643 17.6504 15.9784 17.5006 15.9533 17.3549L15.0442 12.0591L18.8975 8.3091L18.9625 8.23827C19.0553 8.12391 19.1162 7.98698 19.1389 7.84143C19.1616 7.69588 19.1453 7.54692 19.0917 7.40971C19.0381 7.2725 18.9491 7.15196 18.8337 7.06036C18.7184 6.96876 18.5808 6.90938 18.435 6.88827L13.1183 6.1166L10.7417 1.29994C10.6729 1.16038 10.5664 1.04286 10.4343 0.960689C10.3022 0.878514 10.1497 0.834961 9.99416 0.834961C9.83858 0.834961 9.6861 0.878514 9.554 0.960689C9.42189 1.04286 9.31543 1.16038 9.24666 1.29994L6.86915 6.1166Z" fill="#FF1616"/>
</g>
<defs>
<clipPath id="clip0_16_238">
<rect width="20" height="20" fill="white"/>
</clipPath>
</defs>
</svg>
