<svg width="40" height="40" viewBox="0 0 65 65" fill="none" xmlns="http://www.w3.org/2000/svg">
	<g clip-path="url(#clip0_3800_501)">
		<path d="M59.2947 29.9609C59.5044 29.9608 59.7073 29.8866 59.8676 29.7514C60.0279 29.6162 60.1353 29.4287 60.1707 29.2221L61.4331 21.8359H64.1113C64.347 21.8358 64.5729 21.7421 64.7396 21.5755C64.9062 21.4089 64.9999 21.1829 65 20.9473V16.6933C65 16.4576 64.9064 16.2316 64.7397 16.0649C64.5731 15.8983 64.347 15.8046 64.1113 15.8046H61.5723V15.7422C61.57 13.891 60.8336 12.1164 59.5246 10.8074C58.2157 9.49843 56.441 8.76205 54.5898 8.75977H53.1279L52.2031 0.784571C52.1777 0.568271 52.0737 0.368843 51.9109 0.224195C51.7481 0.0795457 51.5378 -0.000240738 51.32 5.45654e-07H47.9573C47.7395 -0.000240738 47.5292 0.0795457 47.3664 0.224195C47.2036 0.368843 47.0996 0.568271 47.0742 0.784571L46.1495 8.7618H44.6875C42.8367 8.76395 41.0622 9.5 39.7533 10.8086C38.4443 12.1171 37.7078 13.8913 37.7051 15.7422V15.8026H35.166C34.9303 15.8026 34.7043 15.8962 34.5376 16.0629C34.371 16.2296 34.2773 16.4556 34.2773 16.6913V20.9442C34.277 21.0612 34.2997 21.177 34.3443 21.2852C34.3888 21.3933 34.4542 21.4916 34.5367 21.5744C34.6193 21.6573 34.7173 21.723 34.8253 21.7679C34.9333 21.8127 35.0491 21.8359 35.166 21.8359H37.8442L39.1066 29.2221C39.1421 29.4287 39.2494 29.6162 39.4097 29.7514C39.57 29.8866 39.7729 29.9608 39.9826 29.9609H42.5928V40.3711H0.888674C0.653464 40.3712 0.427888 40.4646 0.261332 40.6306C0.0947754 40.7967 0.000808258 41.022 2.32064e-06 41.2572V46.3354C-0.000264739 46.4523 0.0225207 46.5681 0.0670548 46.6761C0.111589 46.7842 0.176998 46.8825 0.259538 46.9652C0.342079 47.048 0.440132 47.1137 0.548086 47.1585C0.65604 47.2034 0.771777 47.2265 0.888674 47.2266H3.11035V64.1123C3.11076 64.3478 3.20455 64.5735 3.37115 64.7399C3.53775 64.9063 3.76355 64.9999 3.99903 65H61.001C61.2366 64.9999 61.4626 64.9062 61.6292 64.7396C61.7958 64.5729 61.8895 64.347 61.8897 64.1113V47.2266H64.1113C64.347 47.2264 64.5729 47.1328 64.7396 46.9661C64.9062 46.7995 64.9999 46.5735 65 46.3379V41.2598C64.9999 41.0241 64.9062 40.7982 64.7396 40.6315C64.5729 40.4649 64.347 40.3712 64.1113 40.3711H56.6846V29.9609H59.2947ZM58.5452 28.1836H54.8138L55.2876 21.8359H59.6299L58.5452 28.1836ZM45.7722 21.8359H53.5052L53.0314 28.1836H46.246L45.7722 21.8359ZM48.75 1.77734H50.5273L51.3398 8.76332H47.9375L48.75 1.77734ZM39.4824 15.7422C39.4844 14.3625 40.0335 13.04 41.0093 12.0646C41.9851 11.0892 43.3078 10.5406 44.6875 10.5391H54.5898C55.9695 10.5406 57.2923 11.0892 58.268 12.0646C59.2438 13.04 59.7929 14.3625 59.7949 15.7422V15.8026H39.4824V15.7422ZM36.0547 17.582H63.2227V20.0586H36.0547V17.582ZM39.6475 21.8359H43.9898L44.4636 28.1836H40.7322L39.6475 21.8359ZM60.1123 63.2227H4.8877V47.2266H60.1123V63.2227ZM63.2227 45.4492H1.77735V42.1484H63.2227V45.4492ZM54.9072 40.3711H44.3701V29.9609H54.9072V40.3711Z" fill="#ffffff"></path>
		<path d="M19.0107 60.9375H25.2949C25.5306 60.9375 25.7566 60.8439 25.9233 60.6772C26.09 60.5106 26.1836 60.2845 26.1836 60.0488V50.4004C26.1836 50.1647 26.09 49.9387 25.9233 49.772C25.7566 49.6053 25.5306 49.5117 25.2949 49.5117H19.0107C18.7751 49.5119 18.5491 49.6055 18.3825 49.7722C18.2159 49.9388 18.1222 50.1647 18.1221 50.4004V60.0488C18.1222 60.2845 18.2159 60.5104 18.3825 60.6771C18.5491 60.8437 18.7751 60.9374 19.0107 60.9375ZM19.8994 51.2891H24.4062V59.1602H19.8994V51.2891Z" fill="#ffffff"></path>
		<path d="M29.3574 60.9375H35.6416C35.8773 60.9375 36.1033 60.8439 36.27 60.6772C36.4366 60.5106 36.5303 60.2845 36.5303 60.0488V50.4004C36.5303 50.1647 36.4366 49.9387 36.27 49.772C36.1033 49.6053 35.8773 49.5117 35.6416 49.5117H29.3574C29.1218 49.5119 28.8958 49.6055 28.7292 49.7722C28.5626 49.9388 28.4689 50.1647 28.4688 50.4004V60.0488C28.4689 60.2845 28.5626 60.5104 28.7292 60.6771C28.8958 60.8437 29.1218 60.9374 29.3574 60.9375ZM30.2461 51.2891H34.7529V59.1602H30.2461V51.2891Z" fill="#ffffff"></path>
		<path d="M50.0508 60.9375H56.9382C57.1739 60.9374 57.3999 60.8437 57.5665 60.6771C57.7331 60.5104 57.8268 60.2845 57.8269 60.0488V50.4004C57.8268 50.1647 57.7331 49.9388 57.5665 49.7722C57.3999 49.6055 57.1739 49.5119 56.9382 49.5117H50.0508C49.8151 49.5119 49.5892 49.6055 49.4225 49.7722C49.2559 49.9388 49.1622 50.1647 49.1621 50.4004V60.0488C49.1622 60.2845 49.2559 60.5104 49.4225 60.6771C49.5892 60.8437 49.8151 60.9374 50.0508 60.9375ZM50.9395 51.2891H56.0496V59.1602H50.9395V51.2891Z" fill="#ffffff"></path>
		<path d="M39.7041 60.9375H45.9883C46.224 60.9375 46.45 60.8439 46.6167 60.6772C46.7833 60.5106 46.877 60.2845 46.877 60.0488V50.4004C46.877 50.1647 46.7833 49.9387 46.6167 49.772C46.45 49.6053 46.224 49.5117 45.9883 49.5117H39.7041C39.4685 49.5119 39.2425 49.6055 39.0759 49.7722C38.9092 49.9388 38.8156 50.1647 38.8154 50.4004V60.0488C38.8156 60.2845 38.9092 60.5104 39.0759 60.6771C39.2425 60.8437 39.4685 60.9374 39.7041 60.9375ZM40.5928 51.2891H45.0996V59.1602H40.5928V51.2891Z" fill="#ffffff"></path>
		<path d="M8.06152 60.9375H14.9485C15.1842 60.9375 15.4102 60.8439 15.5769 60.6772C15.7435 60.5106 15.8371 60.2845 15.8371 60.0488V50.4004C15.8371 50.1647 15.7435 49.9387 15.5769 49.772C15.4102 49.6053 15.1842 49.5117 14.9485 49.5117H8.06152C7.82587 49.5119 7.59992 49.6055 7.43329 49.7722C7.26666 49.9388 7.17299 50.1647 7.17285 50.4004V60.0488C7.17299 60.2845 7.26666 60.5104 7.43329 60.6771C7.59992 60.8437 7.82587 60.9374 8.06152 60.9375ZM8.9502 51.2891H14.0598V59.1602H8.9502V51.2891Z" fill="#ffffff"></path>
		<path d="M3.42708 31.9548C3.54379 31.9549 3.65937 31.9319 3.76718 31.8872C3.87499 31.8425 3.97289 31.7769 4.05525 31.6943L8.62962 27.1204L10.2115 27.5698L8.11825 29.6635C8.03576 29.746 7.97033 29.8439 7.92568 29.9517C7.88104 30.0595 7.85806 30.175 7.85806 30.2917C7.85806 30.4083 7.88104 30.5239 7.92568 30.6316C7.97033 30.7394 8.03576 30.8373 8.11825 30.9198C8.20075 31.0023 8.29868 31.0678 8.40646 31.1124C8.51424 31.1571 8.62976 31.18 8.74642 31.18C8.86308 31.18 8.9786 31.1571 9.08638 31.1124C9.19416 31.0678 9.29209 31.0023 9.37458 30.9198L12.1874 28.1086C13.3171 28.3395 14.4865 28.2865 15.5908 27.9542C16.695 27.622 17.6995 27.0208 18.5142 26.2048L32.3638 12.3537C32.4464 12.2712 32.5119 12.1733 32.5566 12.0654C32.6013 11.9576 32.6243 11.842 32.6243 11.7253C32.6243 11.6086 32.6013 11.493 32.5566 11.3851C32.5119 11.2773 32.4464 11.1794 32.3638 11.0969L30.6844 9.41702C29.946 8.67973 28.9451 8.26563 27.9016 8.26562C26.8581 8.26563 25.8573 8.67973 25.1188 9.41702L21.426 13.1093L15.1835 11.6641C14.4489 11.4917 13.6823 11.5102 12.957 11.7181C12.2316 11.9259 11.5715 12.3161 11.0397 12.8514L9.65083 14.2397C9.54852 14.342 9.47275 14.4678 9.43009 14.6061C9.38744 14.7443 9.37919 14.8909 9.40606 15.0331C9.43293 15.1753 9.49412 15.3087 9.5843 15.4219C9.67448 15.5351 9.79093 15.6245 9.92353 15.6824L16.1386 18.3972L13.3614 21.1749L7.92782 21.6776C7.72129 21.6966 7.52793 21.7873 7.38142 21.9341L4.69001 24.6255C4.58046 24.7349 4.50143 24.8711 4.46075 25.0205C4.42008 25.1699 4.41917 25.3274 4.45813 25.4773C4.49709 25.6271 4.57455 25.7642 4.68283 25.8749C4.79112 25.9856 4.92646 26.0661 5.07544 26.1083L6.67251 26.5623L2.79892 30.4374C2.6748 30.5618 2.5903 30.7201 2.55608 30.8924C2.52187 31.0648 2.53948 31.2434 2.60668 31.4057C2.67389 31.568 2.78768 31.7068 2.93369 31.8045C3.0797 31.9023 3.25139 31.9545 3.42708 31.9548ZM8.41279 23.4169L13.8464 22.9147C14.0529 22.8953 14.2461 22.8044 14.3928 22.6577L18.3182 18.7323C18.4205 18.63 18.4963 18.5042 18.5389 18.366C18.5816 18.2277 18.5898 18.0811 18.563 17.9389C18.5361 17.7968 18.4749 17.6633 18.3847 17.5501C18.2945 17.437 18.1781 17.3476 18.0455 17.2896L11.8319 14.5733L12.2996 14.1062C12.6189 13.7848 13.0154 13.5507 13.451 13.4262C13.8867 13.3017 14.3469 13.2911 14.7879 13.3952L21.5057 14.9522C21.6525 14.9863 21.8056 14.9824 21.9506 14.9409C22.0955 14.8994 22.2274 14.8217 22.334 14.715L26.3751 10.6733C26.7801 10.2689 27.329 10.0417 27.9014 10.0417C28.4737 10.0417 29.0226 10.2689 29.4276 10.6733L30.4788 11.725L17.2558 24.948C16.6002 25.6033 15.7816 26.0718 14.8844 26.3049C13.9872 26.5381 13.0441 26.5276 12.1523 26.2744L7.01579 24.8139L8.41279 23.4169Z" fill="#ffffff"></path>
	</g>
	<defs>
		<clipPath id="clip0_3800_501">
			<rect width="65" height="65" fill="white"></rect>
		</clipPath>
	</defs>
</svg>