<svg width="40" height="40" viewBox="0 0 65 65" fill="none" xmlns="http://www.w3.org/2000/svg">
	<path d="M61.0645 14.3164C62.1079 14.3152 63.1082 13.9002 63.846 13.1624C64.5838 12.4246 64.9988 11.4243 65 10.3809V7.58789C64.9999 7.35224 64.9062 7.12628 64.7396 6.95965C64.5729 6.79302 64.347 6.69935 64.1113 6.69922H0.888672C0.653286 6.69935 0.427558 6.79281 0.260972 6.95911C0.0943865 7.12541 0.000537679 7.35098 0 7.58637L0 10.3793C0.00120959 11.4227 0.416235 12.4231 1.15403 13.1609C1.89183 13.8986 2.89215 14.3137 3.93555 14.3149H6.85547V22.9548H0.904414C0.668724 22.9548 0.442686 23.0484 0.276028 23.2151C0.10937 23.3818 0.0157422 23.6078 0.0157422 23.8435V57.415C0.0158767 57.6506 0.109548 57.8766 0.276177 58.0432C0.442806 58.2098 0.668765 58.3035 0.904414 58.3036H64.1113C64.347 58.3035 64.5729 58.2098 64.7396 58.0432C64.9062 57.8766 64.9999 57.6506 65 57.415V23.8455C65 23.6098 64.9064 23.3838 64.7397 23.2171C64.5731 23.0505 64.347 22.9568 64.1113 22.9568H58.1445V14.3164H61.0645ZM1.77734 10.3809V8.47504H63.2227V10.3809C63.222 10.953 62.9944 11.5016 62.5898 11.9062C62.1852 12.3108 61.6366 12.5384 61.0645 12.5391H3.93555C3.36336 12.5384 2.81481 12.3108 2.41021 11.9062C2.00561 11.5016 1.77802 10.953 1.77734 10.3809ZM14.4407 22.9548V14.3164H50.5588V22.9548H14.4407ZM8.63281 14.3164H12.6633V22.9548H8.63281V14.3164ZM1.79309 24.7322H36.7011V56.5263H1.79309V24.7322ZM63.2227 56.5283H38.4785V24.7322H63.2227V56.5283ZM56.3672 22.9548H52.3362V14.3164H56.3672V22.9548Z" fill="#ffffff"></path>
	<path d="M31.3529 31.7916C30.6143 31.0546 29.6135 30.6406 28.5701 30.6406C27.5267 30.6406 26.5259 31.0546 25.7873 31.7916L22.0945 35.4839L15.853 34.0392C15.1183 33.8672 14.3518 33.8861 13.6264 34.0939C12.9011 34.3017 12.2409 34.6916 11.7087 35.2264L10.3198 36.6158C10.2175 36.7181 10.1418 36.8439 10.0991 36.9822C10.0564 37.1204 10.0482 37.267 10.0751 37.4092C10.1019 37.5514 10.1631 37.6849 10.2533 37.798C10.3435 37.9112 10.4599 38.0006 10.5925 38.0585L16.8087 40.7723L14.0314 43.549L8.59785 44.0522C8.39149 44.0704 8.198 44.1602 8.05093 44.3061L5.35953 46.9975C5.25014 47.1071 5.17126 47.2433 5.13069 47.3927C5.09012 47.5421 5.08925 47.6995 5.12819 47.8494C5.16712 47.9992 5.24451 48.1363 5.35268 48.2471C5.46086 48.3578 5.59607 48.4384 5.74496 48.4809L12.3348 50.3588C13.5309 50.6985 14.796 50.713 15.9995 50.4005C17.2031 50.0881 18.3014 49.4601 19.1812 48.5814L33.0328 34.7288C33.1993 34.5621 33.2929 34.336 33.2929 34.1004C33.2929 33.8647 33.1993 33.6387 33.0328 33.472L31.3529 31.7916ZM17.9259 47.323C17.27 47.9785 16.4511 48.4471 15.5537 48.6806C14.6564 48.914 13.7129 48.9038 12.8208 48.651L7.6848 47.189L9.08128 45.7925L14.5149 45.2893C14.7214 45.2703 14.9147 45.1795 15.0613 45.0328L18.9867 41.1074C19.089 41.0051 19.1648 40.8793 19.2074 40.7411C19.2501 40.6028 19.2583 40.4562 19.2314 40.314C19.2046 40.1719 19.1434 40.0384 19.0532 39.9252C18.963 39.8121 18.8466 39.7227 18.714 39.6647L12.4978 36.9505L12.965 36.4833C13.2843 36.1618 13.6808 35.9277 14.1164 35.8032C14.5521 35.6787 15.0124 35.6681 15.4533 35.7723L22.1737 37.3268C22.3206 37.3611 22.4739 37.3573 22.619 37.3157C22.764 37.2741 22.896 37.1961 23.0025 37.0891L27.0436 33.0479C27.4488 32.644 27.9977 32.4171 28.5699 32.4171C29.142 32.4171 29.6909 32.644 30.0961 33.0479L31.1478 34.1001L17.9259 47.323Z" fill="#ffffff"></path>
	<path d="M40.7637 27.9082V31.5645C40.7637 31.8001 40.8573 32.0262 41.024 32.1928C41.1906 32.3595 41.4167 32.4531 41.6523 32.4531H60.0489C60.2846 32.4531 60.5106 32.3595 60.6773 32.1928C60.8439 32.0262 60.9375 31.8001 60.9375 31.5645V27.9082C60.9375 27.6725 60.8439 27.4465 60.6773 27.2798C60.5106 27.1132 60.2846 27.0195 60.0489 27.0195H41.6523C41.4167 27.0195 41.1906 27.1132 41.024 27.2798C40.8573 27.4465 40.7637 27.6725 40.7637 27.9082ZM42.541 28.7969H59.1602V30.6758H42.541V28.7969Z" fill="#ffffff"></path>
	<path d="M60.0489 34.2812H41.6523C41.4167 34.2812 41.1906 34.3749 41.024 34.5415C40.8573 34.7082 40.7637 34.9342 40.7637 35.1699V38.8262C40.7637 39.0619 40.8573 39.2879 41.024 39.4546C41.1906 39.6212 41.4167 39.7148 41.6523 39.7148H60.0489C60.2846 39.7148 60.5106 39.6212 60.6773 39.4546C60.8439 39.2879 60.9375 39.0619 60.9375 38.8262V35.1699C60.9375 34.9342 60.8439 34.7082 60.6773 34.5415C60.5106 34.3749 60.2846 34.2812 60.0489 34.2812ZM59.1602 37.9375H42.541V36.0586H59.1602V37.9375Z" fill="#ffffff"></path>
	<path d="M60.0489 41.5469H41.6523C41.4167 41.547 41.1907 41.6407 41.0241 41.8073C40.8575 41.9739 40.7638 42.1999 40.7637 42.4355V46.0918C40.7637 46.3275 40.8573 46.5535 41.024 46.7202C41.1906 46.8868 41.4167 46.9805 41.6523 46.9805H60.0489C60.2846 46.9805 60.5106 46.8868 60.6773 46.7202C60.8439 46.5535 60.9375 46.3275 60.9375 46.0918V42.4355C60.9374 42.1999 60.8437 41.9739 60.6771 41.8073C60.5105 41.6407 60.2845 41.547 60.0489 41.5469ZM59.1602 45.2031H42.541V43.3242H59.1602V45.2031Z" fill="#ffffff"></path>
	<path d="M60.0489 48.8086H41.6523C41.4167 48.8086 41.1906 48.9022 41.024 49.0689C40.8573 49.2355 40.7637 49.4616 40.7637 49.6973V53.3535C40.7638 53.5892 40.8575 53.8151 41.0241 53.9818C41.1907 54.1484 41.4167 54.2421 41.6523 54.2422H60.0489C60.2845 54.2421 60.5105 54.1484 60.6771 53.9818C60.8437 53.8151 60.9374 53.5892 60.9375 53.3535V49.6973C60.9375 49.4616 60.8439 49.2355 60.6773 49.0689C60.5106 48.9022 60.2846 48.8086 60.0489 48.8086ZM59.1602 52.4648H42.541V50.5859H59.1602V52.4648Z" fill="#ffffff"></path>
</svg>