<svg width="124" height="29" viewBox="0 0 124 29" fill="none" xmlns="http://www.w3.org/2000/svg">
<path d="M26.52 9.94995C26.88 9.94995 27 10.08 27 10.43V18.35H31.07C31.42 18.35 31.55 18.48 31.55 18.83V19.53C31.55 19.88 31.42 20.01 31.07 20.01H25.71C25.36 20.01 25.22 19.88 25.22 19.53V10.43C25.22 10.08 25.36 9.94995 25.71 9.94995H26.52Z" fill="black"/>
<path d="M35.1001 13.44C35.1001 11.13 36.5601 9.73999 39.1001 9.73999C41.6401 9.73999 43.1001 11.13 43.1001 13.44V16.52C43.1001 18.83 41.6301 20.22 39.1001 20.22C36.5701 20.22 35.1001 18.83 35.1001 16.52V13.44ZM41.4201 13.44C41.4201 12.14 40.6101 11.44 39.1501 11.44C37.6901 11.44 36.8901 12.15 36.8901 13.44V16.54C36.8901 17.85 37.6901 18.54 39.1501 18.54C40.6101 18.54 41.4201 17.82 41.4201 16.54V13.44Z" fill="black"/>
<path d="M55.0099 14.5C55.3999 14.5 55.4899 14.63 55.4899 14.98V16.88C55.5005 17.3275 55.4108 17.7717 55.2274 18.1801C55.044 18.5885 54.7715 18.9506 54.4299 19.24C53.5816 19.9155 52.512 20.2506 51.4299 20.18C48.8399 20.18 47.4299 18.79 47.4299 16.48V13.38C47.4299 11.1 48.8899 9.69995 51.4299 9.69995C53.4299 9.69995 54.7299 10.49 55.2799 12.07C55.3107 12.1293 55.3272 12.195 55.3281 12.2619C55.329 12.3288 55.3143 12.3949 55.2852 12.4551C55.2561 12.5153 55.2133 12.5678 55.1603 12.6086C55.1074 12.6494 55.0456 12.6772 54.9799 12.69L54.1999 12.96C53.8599 13.08 53.7199 13.01 53.5999 12.66C53.4343 12.2328 53.131 11.8731 52.738 11.6376C52.345 11.4022 51.8847 11.3045 51.4299 11.36C49.9599 11.36 49.1599 12.07 49.1599 13.36V16.54C49.1599 17.85 49.9699 18.54 51.4299 18.54C52.8899 18.54 53.7899 17.87 53.7899 16.89V16.15H51.6199C51.2599 16.15 51.1299 16.01 51.1299 15.66V14.98C51.1299 14.63 51.2599 14.5 51.6199 14.5H55.0099Z" fill="black"/>
<path d="M59.6201 13.44C59.6201 11.13 61.0801 9.73999 63.6201 9.73999C66.1601 9.73999 67.6201 11.13 67.6201 13.44V16.52C67.6201 18.83 66.1501 20.22 63.6201 20.22C61.0901 20.22 59.6201 18.83 59.6201 16.52V13.44ZM65.9301 13.44C65.9301 12.14 65.1201 11.44 63.6701 11.44C62.2201 11.44 61.4001 12.15 61.4001 13.44V16.54C61.4001 17.85 62.2101 18.54 63.6701 18.54C65.1301 18.54 65.9301 17.82 65.9301 16.54V13.44Z" fill="black"/>
<path d="M72.3301 10.24C72.3301 10.02 72.4001 9.94995 72.6201 9.94995H73.0801C73.3001 9.94995 73.3501 10.02 73.3501 10.24V19.72C73.3501 19.94 73.3501 20.01 73.0801 20.01H72.6201C72.4001 20.01 72.3301 19.94 72.3301 19.72V10.24Z" fill="black"/>
<path d="M82.4599 9.94995C83.2927 9.94995 84.0914 10.2808 84.6803 10.8696C85.2691 11.4585 85.5999 12.2572 85.5999 13.09C85.5999 13.9227 85.2691 14.7214 84.6803 15.3103C84.0914 15.8991 83.2927 16.23 82.4599 16.23H79.4599V19.72C79.4599 19.94 79.4099 20.01 79.1999 20.01H78.7299C78.5199 20.01 78.4399 19.94 78.4399 19.72V10.24C78.4399 10.02 78.5199 9.94995 78.7299 9.94995H82.4599ZM82.3699 15.24C82.6562 15.24 82.9397 15.1836 83.2042 15.074C83.4687 14.9645 83.709 14.8039 83.9114 14.6014C84.1139 14.399 84.2744 14.1587 84.384 13.8942C84.4936 13.6297 84.5499 13.3462 84.5499 13.06C84.5499 12.7737 84.4936 12.4902 84.384 12.2257C84.2744 11.9612 84.1139 11.7209 83.9114 11.5185C83.709 11.316 83.4687 11.1554 83.2042 11.0459C82.9397 10.9363 82.6562 10.88 82.3699 10.88H79.3699V15.24H82.3699Z" fill="black"/>
<path d="M93.41 9.74994C94.1821 9.66473 94.9611 9.83083 95.6312 10.2236C96.3014 10.6163 96.827 11.2147 97.13 11.9299C97.21 12.0899 97.13 12.2199 96.97 12.2999L96.53 12.4999C96.35 12.5699 96.28 12.5599 96.17 12.3699C95.9435 11.8391 95.554 11.3941 95.0578 11.0993C94.5616 10.8045 93.9846 10.6751 93.41 10.7299C91.72 10.7299 90.8 11.3999 90.8 12.5999C90.7902 12.9667 90.9134 13.3246 91.1468 13.6076C91.3802 13.8907 91.7081 14.0797 92.07 14.1399C92.6079 14.3153 93.1655 14.4228 93.73 14.4599C94.4134 14.4964 95.0875 14.6346 95.73 14.8699C96.2227 15.0258 96.6466 15.3465 96.9307 15.778C97.2148 16.2096 97.3417 16.7258 97.29 17.2399C97.29 19.1099 95.93 20.2399 93.43 20.2399C92.61 20.3337 91.7826 20.1437 91.0857 19.7016C90.3888 19.2594 89.8645 18.5918 89.6 17.8099C89.5824 17.7743 89.5728 17.7352 89.5721 17.6954C89.5713 17.6557 89.5793 17.6162 89.5956 17.5799C89.6118 17.5436 89.6359 17.5113 89.666 17.4854C89.6962 17.4595 89.7317 17.4405 89.77 17.4299L90.21 17.2699C90.2447 17.2558 90.2819 17.249 90.3193 17.25C90.3568 17.251 90.3936 17.2598 90.4274 17.2757C90.4613 17.2917 90.4914 17.3146 90.516 17.3428C90.5405 17.3711 90.5589 17.4042 90.57 17.4399C90.7937 18.0049 91.1915 18.4839 91.7058 18.8075C92.22 19.1312 92.8239 19.2826 93.43 19.2399C95.32 19.2399 96.25 18.5799 96.25 17.2399C96.2676 16.8877 96.1597 16.5406 95.9455 16.2605C95.7312 15.9803 95.4246 15.7852 95.08 15.7099C94.5626 15.5556 94.0291 15.4616 93.49 15.4299L92.41 15.2899C92.072 15.2182 91.7382 15.1281 91.41 15.0199C91.0859 14.922 90.7837 14.7624 90.52 14.5499C90.2548 14.3097 90.0456 14.0141 89.9074 13.684C89.7691 13.3539 89.7052 12.9975 89.72 12.6399C89.79 10.8899 91.1 9.74994 93.41 9.74994Z" fill="black"/>
<path d="M102.68 16.59C102.723 17.2971 103.033 17.9614 103.549 18.4471C104.065 18.9328 104.747 19.2033 105.455 19.2033C106.164 19.2033 106.845 18.9328 107.361 18.4471C107.877 17.9614 108.188 17.2971 108.23 16.59V10.24C108.23 10.02 108.3 9.94995 108.52 9.94995H108.98C109.2 9.94995 109.27 10.02 109.27 10.24V16.58C109.27 18.85 107.93 20.22 105.46 20.22C102.99 20.22 101.65 18.85 101.65 16.58V10.24C101.65 10.02 101.72 9.94995 101.93 9.94995H102.4C102.61 9.94995 102.68 10.02 102.68 10.24V16.59Z" fill="black"/>
<path d="M123.07 9.94997C123.29 9.94997 123.36 10.02 123.36 10.24V19.72C123.36 19.94 123.29 20.01 123.07 20.01H122.65C122.44 20.01 122.37 19.94 122.37 19.72V13.95C122.37 13.1104 122.427 12.2718 122.54 11.44H122.48C122.168 12.2007 121.803 12.9391 121.39 13.65L119.24 17.44C119.214 17.5057 119.168 17.5619 119.109 17.6012C119.05 17.6405 118.981 17.661 118.91 17.66H118.63C118.558 17.6603 118.488 17.6397 118.427 17.6006C118.367 17.5615 118.319 17.5057 118.29 17.44L116.11 13.61C115.723 12.9092 115.389 12.1805 115.11 11.43H115.05C115.152 12.2695 115.206 13.1142 115.21 13.96V19.72C115.21 19.94 115.14 20.01 114.92 20.01H114.53C114.31 20.01 114.24 19.94 114.24 19.72V10.24C114.24 10.02 114.31 9.94997 114.53 9.94997H114.89C114.972 9.9423 115.055 9.9603 115.126 10.0015C115.198 10.0427 115.255 10.105 115.29 10.18L118.79 16.4L122.27 10.24C122.38 10.03 122.44 9.99997 122.66 9.99997L123.07 9.94997Z" fill="black"/>
<path d="M8.73 17.79V25.02C8.73 25.2972 8.6199 25.563 8.42393 25.7589C8.22795 25.9549 7.96215 26.065 7.685 26.065C7.40785 26.065 7.14205 25.9549 6.94608 25.7589C6.7501 25.563 6.64 25.2972 6.64 25.02V17.8C6.93096 18.0125 7.27983 18.1311 7.64 18.14C8.03264 18.1512 8.41729 18.0277 8.73 17.79ZM17.63 15.7C17.3648 15.7 17.1104 15.8054 16.9229 15.9929C16.7354 16.1804 16.63 16.4348 16.63 16.7V17.96C16.63 18.2372 16.7401 18.503 16.9361 18.6989C17.132 18.8949 17.3978 19.005 17.675 19.005C17.9522 19.005 18.218 18.8949 18.4139 18.6989C18.6099 18.503 18.72 18.2372 18.72 17.96V16.75C18.7278 16.6066 18.7046 16.4632 18.652 16.3296C18.5994 16.196 18.5187 16.0752 18.4152 15.9756C18.3118 15.876 18.1881 15.7998 18.0527 15.7522C17.9172 15.7047 17.773 15.6869 17.63 15.7ZM4.37 20.53C4.01017 20.5192 3.66183 20.4008 3.37 20.19V27.44C3.37 27.7185 3.48062 27.9856 3.67754 28.1825C3.87445 28.3794 4.14152 28.49 4.42 28.49C4.69848 28.49 4.96555 28.3794 5.16246 28.1825C5.35938 27.9856 5.47 27.7185 5.47 27.44V20.24C5.14345 20.4511 4.75816 20.5527 4.37 20.53ZM14.37 13.53C14.2345 13.5232 14.0991 13.5441 13.9719 13.5913C13.8448 13.6385 13.7286 13.7111 13.6303 13.8046C13.5321 13.8982 13.454 14.0107 13.4006 14.1354C13.3473 14.2601 13.3198 14.3944 13.32 14.53V20.1C13.32 20.3785 13.4306 20.6456 13.6275 20.8425C13.8245 21.0394 14.0915 21.15 14.37 21.15C14.6485 21.15 14.9156 21.0394 15.1125 20.8425C15.3094 20.6456 15.42 20.3785 15.42 20.1V14.6C15.428 14.4557 15.4046 14.3114 15.3514 14.177C15.2982 14.0426 15.2166 13.9213 15.112 13.8215C15.0074 13.7217 14.8825 13.6457 14.7458 13.5989C14.609 13.552 14.4638 13.5353 14.32 13.55L14.37 13.53ZM11.05 15.67C10.6733 15.6674 10.3067 15.5487 10 15.33V22.6C10 22.8785 10.1106 23.1456 10.3075 23.3425C10.5044 23.5394 10.7715 23.65 11.05 23.65C11.3285 23.65 11.5955 23.5394 11.7925 23.3425C11.9894 23.1456 12.1 22.8785 12.1 22.6V15.34C11.7828 15.5763 11.3955 15.6995 11 15.69L11.05 15.67ZM2.1 21.24V0.93C2.09737 0.682434 1.99717 0.445905 1.82117 0.271778C1.64517 0.0976509 1.40758 -1.40086e-05 1.16 1.50713e-09H0.940001C0.69242 -1.40086e-05 0.454831 0.0976509 0.278831 0.271778C0.102832 0.445905 0.00263383 0.682434 0 0.93V21.24C0 21.4893 0.0990359 21.7284 0.27532 21.9047C0.451604 22.081 0.690697 22.18 0.940001 22.18H1.16C1.40931 22.18 1.6484 22.081 1.82468 21.9047C2.00097 21.7284 2.1 21.4893 2.1 21.24ZM4.48 19.76H4.26C4.0107 19.76 3.7716 19.661 3.59532 19.4847C3.41904 19.3084 3.32 19.0693 3.32 18.82V3.35C3.32264 3.10244 3.42283 2.8659 3.59883 2.69178C3.77483 2.51765 4.01242 2.41999 4.26 2.42H4.48C4.72758 2.41999 4.96517 2.51765 5.14117 2.69178C5.31717 2.8659 5.41737 3.10244 5.42 3.35V18.84C5.42 19.0893 5.32096 19.3284 5.14468 19.5047C4.9684 19.681 4.7293 19.78 4.48 19.78V19.76ZM7.79 17.38H7.56C7.31335 17.38 7.0768 17.282 6.90239 17.1076C6.72798 16.9332 6.63 16.6967 6.63 16.45V5.75C6.62868 5.62703 6.65176 5.50502 6.6979 5.39103C6.74405 5.27704 6.81234 5.17334 6.89883 5.08592C6.98532 4.9985 7.08829 4.9291 7.20178 4.88174C7.31527 4.83438 7.43703 4.80999 7.56 4.81H7.79C8.03757 4.81264 8.2741 4.91283 8.44823 5.08883C8.62235 5.26483 8.72002 5.50242 8.72 5.75V16.45C8.72 16.6967 8.62202 16.9332 8.44761 17.1076C8.2732 17.282 8.03665 17.38 7.79 17.38ZM11.1 14.93H10.89C10.6424 14.93 10.4048 14.8324 10.2288 14.6582C10.0528 14.4841 9.95263 14.2476 9.95 14V8.24C9.94179 8.11161 9.96002 7.98289 10.0036 7.86183C10.0471 7.74076 10.1151 7.62993 10.2032 7.53619C10.2913 7.44244 10.3977 7.36778 10.5159 7.31684C10.634 7.26589 10.7613 7.23974 10.89 7.24H11.11C11.3593 7.24 11.5984 7.33904 11.7747 7.51532C11.951 7.6916 12.05 7.9307 12.05 8.18V13.98C12.0513 14.1043 12.028 14.2276 11.9813 14.3428C11.9347 14.458 11.8657 14.5628 11.7782 14.6512C11.6908 14.7395 11.5868 14.8096 11.472 14.8575C11.3573 14.9054 11.2343 14.93 11.11 14.93H11.1ZM14.42 12.78H14.2C13.9507 12.78 13.7116 12.681 13.5353 12.5047C13.359 12.3284 13.26 12.0893 13.26 11.84V10.35C13.2626 10.1024 13.3628 9.8659 13.5388 9.69178C13.7148 9.51765 13.9524 9.41999 14.2 9.42H14.42C14.6676 9.41999 14.9052 9.51765 15.0812 9.69178C15.2572 9.8659 15.3574 10.1024 15.36 10.35V11.84C15.36 12.0876 15.2624 12.3252 15.0882 12.5012C14.9141 12.6772 14.6776 12.7774 14.43 12.78H14.42Z" fill="black"/>
</svg>
