<?xml version="1.0" encoding="UTF-8"?> <svg xmlns="http://www.w3.org/2000/svg" id="a3cfdd0c-89ba-4068-bbab-23ba484011da" data-name="Layer 1" viewBox="0 0 1000 306"><path d="M255.1,576.4,133.3,506.1a7.6,7.6,0,0,0-7.7,0L3.9,576.4A7.7,7.7,0,0,0,0,583V723.6a7.7,7.7,0,0,0,3.9,6.7l121.7,70.3a7.6,7.6,0,0,0,7.7,0l121.8-70.3a7.7,7.7,0,0,0,3.9-6.7V583A7.7,7.7,0,0,0,255.1,576.4Zm-96,142.4H59.2a2.2,2.2,0,0,1-2.2-2.3V584.1a2.3,2.3,0,0,1,2.2-2.3H82.1a2.4,2.4,0,0,1,2.3,2.3V689.2a2.2,2.2,0,0,0,2.2,2.2h55.8a2.4,2.4,0,0,1,1.9,1l16.6,22.8A2.2,2.2,0,0,1,159.1,718.8Zm50.8,0H181.7a2.4,2.4,0,0,1-1.8-.9l-38.6-53a2.8,2.8,0,0,0-1.9-.9H100.3a2.2,2.2,0,0,1-2.2-2.3V638.9a2.2,2.2,0,0,1,2.2-2.3h52.1a14,14,0,0,0,14.1-12.8,13.6,13.6,0,0,0-13.6-14.6H100.3a2.2,2.2,0,0,1-2.2-2.3V584.1a2.2,2.2,0,0,1,2.2-2.3H152c22.9,0,42.3,18.8,41.9,41.7a41.1,41.1,0,0,1-20.4,34.9,2.2,2.2,0,0,0-.7,3.3l39,53.5A2.3,2.3,0,0,1,209.9,718.8Z" transform="translate(0 -505)"></path><polygon points="341.5 96.2 317.1 96.2 317.1 206.8 396.6 206.8 396.6 184.7 341.5 184.7 341.5 96.2"></polygon><path d="M449.9,626.2c-14.3,0-23.5,2.7-32.8,6.8l6,18.3c7.8-2.8,14.3-4.6,23.4-4.6,12,0,18.2,5.6,18.2,15.5v1.4a61.6,61.6,0,0,0-20.7-3.5c-20.1,0-34.1,8.6-34.1,27v.4c0,16.7,13.1,25.9,29,25.9,11.7,0,19.7-4.3,25.5-10.8v9.2h23.2V662.7c0-11.4-2.8-20.7-9.1-27S463.1,626.2,449.9,626.2ZM465,682c0,8.6-7.6,14.8-18.8,14.8-7.7,0-13.1-3.8-13.1-10.3v-.3c0-7.6,6.3-11.7,16.6-11.7a37.2,37.2,0,0,1,15.3,3.2Z" transform="translate(0 -505)"></path><path d="M605,638v-.3c0-10.4-3.3-19.1-9.5-25.2s-18.1-11.2-32.2-11.2H512.8V711.8h24.3V676.4h19.1l23.7,35.4h28.4l-27-39.5C595.4,667.1,605,655.9,605,638Zm-24.6,1.3c0,9.3-6.8,15.7-18.6,15.7H537.1V623.2h24.2c11.9,0,19.1,5.4,19.1,15.8Z" transform="translate(0 -505)"></path><path d="M702.5,711.8V627.1h-24v47.2c0,11.4-5.8,17.2-15,17.2S649,685.7,649,674.3V627.1H625V682c0,19.4,10.6,31.4,28.7,31.3,12.2,0,19.3-6.4,24.8-13.5v12Z" transform="translate(0 -505)"></path><path d="M766.2,693c-13.1,0-21.5-10.4-21.5-23.4v-.3c0-12.5,8.5-23,20.5-23,8.6,0,13.9,3.6,19.3,9.3l14.7-15.8c-7.9-8.8-17.9-14.2-33.8-14.2-25.9,0-44.4,19.9-44.4,44v.4c0,24.1,18.6,43.7,44.2,43.7,16.8,0,26.3-6.5,34.5-15.5l-14-14.2C779.8,689.5,774.3,693,766.2,693Z" transform="translate(0 -505)"></path><path d="M839.6,664.6c0-11.3,5.8-17.2,15-17.2s14.5,5.9,14.5,17.2v47.2h24V657c0-19.4-10.5-31.4-28.7-31.4-12.2,0-19.3,6.4-24.8,13.5V596.5h-24V711.8h24Z" transform="translate(0 -505)"></path><path d="M955.5,713.7c15.3,0,26.7-6,34.6-15.9l-13.8-12.1c-6.6,6.2-12.4,8.7-20.5,8.7-10.7,0-18.3-5.7-20.7-16.6H994c.1-2.2.3-4.4.3-6.3,0-24-12.9-45.9-41.2-45.9-24.6,0-41.8,19.9-41.8,44v.4C911.3,695.8,930.1,713.7,955.5,713.7Zm-2.3-68.9c10,0,16.4,7.3,17.8,18H934.9C936.7,652,943.2,644.8,953.2,644.8Z" transform="translate(0 -505)"></path><path d="M714.8,756H693.5v54.1H703V792.7h10.8c11.9,0,21.6-6.3,21.6-18.5h0C735.4,763.2,727.5,756,714.8,756Zm11,18.5c0,5.6-4.5,9.6-11.7,9.6H703V764.7h11.1c7.1,0,11.7,3.3,11.7,9.6Z" transform="translate(0 -505)"></path><polygon points="788 273.5 762.2 273.5 762.2 251 752.8 251 752.8 305.1 762.2 305.1 762.2 282.3 788 282.3 788 305.1 797.5 305.1 797.5 251 788 251 788 273.5"></polygon><path d="M845.5,755.1c-16.6,0-28.4,12.8-28.4,28h0c0,15.3,11.6,27.8,28.2,27.8s28.4-12.7,28.4-27.9v-.2C873.7,767.7,862.1,755.1,845.5,755.1Zm18.2,28.1c0,10.5-7.5,19-18.2,19s-18.4-8.6-18.4-19.1v-.2c0-10.5,7.5-19.1,18.2-19.1s18.4,8.8,18.4,19.3Z" transform="translate(0 -505)"></path><polygon points="886.7 259.8 903.8 259.8 903.8 305.1 913.4 305.1 913.4 259.8 930.6 259.8 930.6 251 886.7 251 886.7 259.8"></polygon><path d="M971.8,755.1c-16.6,0-28.4,12.8-28.4,28h0c0,15.3,11.6,27.8,28.3,27.8s28.3-12.7,28.3-27.9v-.2C1000,767.7,988.4,755.1,971.8,755.1ZM990,783.2c0,10.5-7.5,19-18.2,19s-18.4-8.6-18.4-19.1v-.2c0-10.5,7.5-19.1,18.2-19.1s18.4,8.8,18.4,19.3Z" transform="translate(0 -505)"></path></svg> 