<svg width="20" height="20" viewBox="0 0 20 20" fill="none" xmlns="http://www.w3.org/2000/svg">
<path d="M10.0008 1.66667C14.6032 1.66667 18.3342 5.39763 18.3342 10C18.3342 14.6023 14.6032 18.3333 10.0008 18.3333C8.47258 18.3333 7.04042 17.922 5.80905 17.2039L1.67096 18.3333L2.7976 14.1929C2.07911 12.9613 1.66748 11.5288 1.66748 10C1.66748 5.39763 5.39844 1.66667 10.0008 1.66667ZM6.9936 6.09028C6.88577 6.09785 6.78006 6.12418 6.68381 6.17343C6.6116 6.21037 6.54456 6.26376 6.43924 6.36322C6.33978 6.45713 6.28214 6.53914 6.22141 6.61822C5.91332 7.01933 5.74774 7.51171 5.75081 8.01748C5.75249 8.42633 5.85869 8.82367 6.02641 9.19467C6.36651 9.947 6.9274 10.7423 7.66828 11.4799C7.84625 11.6571 8.02061 11.8362 8.20861 12.0017C9.12816 12.8113 10.224 13.3952 11.4089 13.7068C11.4089 13.7068 11.8756 13.7785 11.8824 13.7789C12.037 13.7873 12.1913 13.7761 12.3461 13.7682C12.5888 13.7557 12.8258 13.69 13.0403 13.5758C13.1782 13.5023 13.2435 13.4658 13.3592 13.3928C13.3592 13.3928 13.3947 13.3688 13.4632 13.3178C13.5757 13.234 13.6452 13.175 13.7388 13.0778C13.8078 13.0062 13.8672 12.9215 13.913 12.8261C13.9782 12.6901 14.0437 12.4305 14.0698 12.2149C14.0897 12.0503 14.0837 11.9603 14.0816 11.9045C14.078 11.8148 14.0039 11.7226 13.9227 11.6834L13.4382 11.4656C13.4382 11.4656 12.7136 11.1503 12.2704 10.9481C12.2242 10.927 12.1737 10.9173 12.123 10.9142C12.0118 10.9073 11.8872 10.9363 11.808 11.0198C11.8038 11.0182 11.7487 11.0658 11.1457 11.7963C11.1125 11.836 11.0346 11.9224 10.8998 11.9143C10.8795 11.9129 10.8592 11.91 10.8395 11.9048C10.7849 11.8904 10.7317 11.8714 10.6797 11.8494C10.5767 11.8057 10.5405 11.7891 10.4701 11.7588C9.989 11.5486 9.5475 11.2674 9.15725 10.9233C9.05258 10.8312 8.95525 10.7319 8.85491 10.6347C8.50475 10.2953 8.21807 9.93425 8.00481 9.57817C7.99316 9.55875 7.97522 9.53067 7.9559 9.49925C7.92101 9.4425 7.88252 9.375 7.87046 9.32867C7.83948 9.20608 7.92166 9.10758 7.92166 9.10758C7.92166 9.10758 8.12449 8.88583 8.21873 8.76525C8.3094 8.64917 8.38766 8.53567 8.4375 8.45475C8.53566 8.29694 8.56675 8.13385 8.51516 8.00803C8.28136 7.43804 8.04015 6.87113 7.79155 6.30745C7.74248 6.19621 7.59654 6.11538 7.46382 6.10006C7.41887 6.09487 7.37396 6.08965 7.32882 6.08668C7.21711 6.08123 7.10516 6.08243 6.9936 6.09028Z" fill="black"/>
</svg>
