<svg width="20" height="20" viewBox="0 0 20 20" fill="none" xmlns="http://www.w3.org/2000/svg">
<path d="M1.70776 10.8333H6.27271C6.42186 13.5573 7.29783 16.0878 8.71 18.2341C4.98967 17.6559 2.08341 14.6168 1.70776 10.8333ZM1.70776 9.16658C2.08341 5.38307 4.98967 2.34397 8.71 1.76585C7.29783 3.91213 6.42186 6.44259 6.27271 9.16658H1.70776ZM18.2922 9.16658H13.7272C13.578 6.44259 12.7021 3.91213 11.2899 1.76585C15.0102 2.34397 17.9165 5.38307 18.2922 9.16658ZM18.2922 10.8333C17.9165 14.6168 15.0102 17.6559 11.2899 18.2341C12.7021 16.0878 13.578 13.5573 13.7272 10.8333H18.2922ZM7.94223 10.8333H12.0577C11.9147 13.1523 11.1788 15.311 9.99991 17.1596C8.821 15.311 8.08524 13.1523 7.94223 10.8333ZM7.94223 9.16658C8.08524 6.84758 8.821 4.68893 9.99991 2.84034C11.1788 4.68893 11.9147 6.84758 12.0577 9.16658H7.94223Z" fill="black"/>
</svg>
