<svg width="55" height="32" viewBox="0 0 55 32" fill="none" xmlns="http://www.w3.org/2000/svg">
<path fill-rule="evenodd" clip-rule="evenodd" d="M44.9525 31.8316C47.5062 31.3629 49.8238 30.1648 51.6816 28.3532C52.8265 27.2368 53.4544 26.3734 54.0635 25.0782C54.8151 23.4802 55 22.585 55 20.5436C55 18.4299 54.8105 17.5658 53.9668 15.8304C52.962 13.7641 51.2944 11.9967 49.2007 10.7792C48.2327 10.2162 46.1774 9.4686 45.274 9.35083C44.9532 9.30903 44.6465 9.2167 44.5923 9.14561C44.5382 9.0744 43.8004 7.27864 42.9528 5.15489C42.1052 3.03114 41.315 1.15315 41.1971 0.98166C40.831 0.449586 40.1155 0.101042 39.3895 0.101042C38.2574 0.101042 37.6059 0.609833 37.0755 1.90816C36.8818 2.3822 36.1327 4.12424 35.4108 5.77952C32.4818 12.4957 31.1351 16.1719 30.7634 18.4656C30.287 21.4061 30.9896 24.6835 32.6237 27.1441C34.2768 29.6332 37.284 31.4236 40.5986 31.8923C41.77 32.0579 43.8801 32.0285 44.9525 31.8316ZM14.1914 31.8448C19.1111 30.8991 22.985 27.502 24.0916 23.1629C24.4707 21.6762 24.4923 19.5798 24.1436 18.1237C23.6565 16.0899 22.7246 14.349 21.3461 12.8974C19.6176 11.0772 17.614 9.9566 15.0265 9.3632L13.9152 9.10824L12.3328 5.15681C11.4575 2.97128 10.6122 1.02936 10.4412 0.811533C9.83647 0.0410771 8.67116 -0.222634 7.75042 0.202457C7.2215 0.446632 6.69695 1.04832 6.4802 1.65944C6.39651 1.89544 5.70113 3.51948 4.93479 5.26845C2.1928 11.5274 0.494886 16.0597 0.159147 18.017C-0.0562627 19.2727 -0.0524644 21.4087 0.167302 22.5866C0.741242 25.662 2.47244 28.3754 4.94585 30.0761C5.8019 30.6649 7.28552 31.3238 8.46156 31.6377C9.3709 31.8804 9.85255 31.9337 11.4453 31.9673C12.7763 31.9955 13.5981 31.9588 14.1914 31.8448ZM40.3068 28.4327C38.6845 28.1048 37.3118 27.3492 36.0686 26.0997C34.7076 24.7319 34.0089 23.0462 33.8833 20.8275C33.7712 18.8488 34.0474 17.7225 35.6672 13.5512C36.3683 11.7461 38.302 7.08943 39.0697 5.35761L39.2818 4.87903L40.7773 8.55005L42.2729 12.2211L43.4859 12.3549C48.6636 12.9257 52.2138 16.7693 51.7176 21.267C51.5173 23.0822 50.7421 24.6076 49.3244 25.9766C47.0187 28.2029 43.6755 29.1135 40.3068 28.4327ZM9.73681 28.5414C8.0018 28.1804 6.7375 27.4946 5.46102 26.222C4.46386 25.2278 3.82791 24.0493 3.44235 22.4806C3.24068 21.6603 3.2142 21.2911 3.25967 19.9253C3.30816 18.4685 3.34905 18.2166 3.72781 17.0445C4.43872 14.844 8.26727 5.38713 8.57306 5.07629C8.6239 5.02462 9.08611 6.01778 9.60016 7.28318C10.1142 8.54868 10.7808 10.1795 11.0813 10.9074L11.6279 12.2307L12.5422 12.3112C15.2094 12.5464 17.4362 13.5901 19.0742 15.3731C21.5891 18.1104 21.8013 22.0874 19.5919 25.0751C18.3736 26.7224 16.2695 28.0294 14.0786 28.4992C12.8547 28.7618 10.8878 28.7809 9.73681 28.5414Z" fill="white"/>
</svg>
