<svg width="47" height="43" viewBox="0 0 47 43" fill="none" xmlns="http://www.w3.org/2000/svg">
<path opacity="0.9" d="M13 11.8598C13 6.28142 18.0225 2.04662 23.5207 2.98916L42.6759 6.27291C44.5962 6.60211 46 8.26704 46 10.2154V19.1394C46 24.7178 40.9775 28.9526 35.4793 28.01L16.3241 24.7263C14.4038 24.3971 13 22.7322 13 20.7838V11.8598Z" stroke="#109C3D" stroke-width="2"/>
<path opacity="0.7" d="M7 17.8598C7 12.2814 12.0225 8.04662 17.5207 8.98916L36.6759 12.2729C38.5962 12.6021 40 14.267 40 16.2154V25.1394C40 30.7178 34.9775 34.9526 29.4793 34.01L10.3241 30.7263C8.4038 30.3971 7 28.7322 7 26.7838V17.8598Z" stroke="#109C3D" stroke-width="2"/>
<path opacity="0.4" d="M1 23.8598C1 18.2814 6.02254 14.0466 11.5207 14.9892L30.6759 18.2729C32.5962 18.6021 34 20.267 34 22.2154V31.1394C34 36.7178 28.9775 40.9526 23.4793 40.01L4.32414 36.7263C2.4038 36.3971 1 34.7322 1 32.7838V23.8598Z" stroke="#109C3D" stroke-width="2"/>
</svg>
