<svg width="36" height="36" viewBox="0 0 36 36" fill="none" xmlns="http://www.w3.org/2000/svg">
<g clip-path="url(#clip0_56_16)">
<path d="M4.5 18C4.5 19.1935 4.97411 20.3381 5.81802 21.182C6.66193 22.0259 7.80653 22.5 9 22.5C10.1935 22.5 11.3381 22.0259 12.182 21.182C13.0259 20.3381 13.5 19.1935 13.5 18C13.5 16.8065 13.0259 15.6619 12.182 14.818C11.3381 13.9741 10.1935 13.5 9 13.5C7.80653 13.5 6.66193 13.9741 5.81802 14.818C4.97411 15.6619 4.5 16.8065 4.5 18Z" stroke="white" stroke-width="2" stroke-linecap="round" stroke-linejoin="round"/>
<path d="M22.5 9C22.5 10.1935 22.9741 11.3381 23.818 12.182C24.6619 13.0259 25.8065 13.5 27 13.5C28.1935 13.5 29.3381 13.0259 30.182 12.182C31.0259 11.3381 31.5 10.1935 31.5 9C31.5 7.80653 31.0259 6.66193 30.182 5.81802C29.3381 4.97411 28.1935 4.5 27 4.5C25.8065 4.5 24.6619 4.97411 23.818 5.81802C22.9741 6.66193 22.5 7.80653 22.5 9Z" stroke="white" stroke-width="2" stroke-linecap="round" stroke-linejoin="round"/>
<path d="M22.5 27C22.5 28.1935 22.9741 29.3381 23.818 30.182C24.6619 31.0259 25.8065 31.5 27 31.5C28.1935 31.5 29.3381 31.0259 30.182 30.182C31.0259 29.3381 31.5 28.1935 31.5 27C31.5 25.8065 31.0259 24.6619 30.182 23.818C29.3381 22.9741 28.1935 22.5 27 22.5C25.8065 22.5 24.6619 22.9741 23.818 23.818C22.9741 24.6619 22.5 25.8065 22.5 27Z" stroke="white" stroke-width="2" stroke-linecap="round" stroke-linejoin="round"/>
<path d="M13.05 16.0502L22.95 10.9502" stroke="white" stroke-width="2" stroke-linecap="round" stroke-linejoin="round"/>
<path d="M13.05 19.9502L22.95 25.0502" stroke="white" stroke-width="2" stroke-linecap="round" stroke-linejoin="round"/>
</g>
<defs>
<clipPath id="clip0_56_16">
<rect width="36" height="36" fill="white"/>
</clipPath>
</defs>
</svg>
