<svg width="488" height="430" viewBox="0 0 488 430" fill="none" xmlns="http://www.w3.org/2000/svg">
<path d="M239.417 26.8257C206.431 -24.1081 129.805 3.91879 143.047 64.939C152.928 102.822 207.125 129.937 234.081 147.269C236.151 148.485 238.496 149.155 240.896 149.216C243.296 149.277 245.673 148.727 247.802 147.618C283.956 128.821 367.423 80.3799 334.592 24.2862C314.04 -10.0946 264.152 -5.68735 244.224 26.8267C243.953 27.2126 243.593 27.5276 243.175 27.7451C242.756 27.9625 242.292 28.076 241.82 28.0759C241.349 28.0758 240.884 27.9621 240.466 27.7445C240.047 27.5269 239.687 27.2117 239.417 26.8257Z" fill="#E29F36"/>
<path d="M436.388 329.831C422.955 321.099 410.009 310.99 394.586 306.005C397.966 293.69 384.066 288.945 374.32 290.276C363.886 291.36 352.81 296.438 344.334 303.265C345.022 295.351 346.337 287.505 348.267 279.8C349.188 275.941 350.815 271.813 350.512 267.781C350.018 261.175 344.114 259.234 338.327 259.825C327.64 260.914 317.069 267.729 313.624 277.962C295.94 280.364 286.548 297.191 282.28 314.492C269.589 312.871 259.48 324.037 254.34 334.673C243.774 346.495 229.764 355.488 213.391 350.485C233.774 328.745 258.218 311.608 283.317 295.86C285.877 294.074 284.397 289.137 281.023 290.42C276.62 292.146 272.386 294.277 268.375 296.784C266.728 290.598 262.954 285.19 257.715 281.511C262.152 278.644 266.88 276.782 271.377 274.073C273.702 272.727 272.074 269.471 269.63 269.927C262.631 271.236 256.169 274.467 249.977 277.915C240.966 275.714 230.811 282.303 230.147 291.7C210.483 305.926 192.1 321.843 175.208 339.271C165.442 349.463 145.869 352.339 137.189 342.343C178.694 316.538 207.906 275.401 253.419 255.924C256.184 254.739 254.213 250.115 251.371 251.055C227.632 258.893 208.383 275.027 189.881 291.298C181.974 298.249 174.185 305.435 166.214 312.4C160.645 317.341 153.521 320.176 146.079 320.413C139.321 320.572 132.994 319.002 130.556 316.044C154.602 298.881 178.813 281.271 200.96 261.549C205.966 258.49 210.196 254.37 215.312 251.526C220.077 248.789 225.339 246.887 230.254 244.441C242.885 241.763 255.995 237.553 266.433 230.086C286.07 224.229 307.399 217.798 328.039 217.608C345.007 217.431 361.666 223.047 377.659 228.186C410.484 238.886 442.664 251.476 474.035 265.894C478.374 267.867 482.173 261.436 477.802 259.449C452.512 247.949 426.763 237.509 400.556 228.129C375.036 219.034 346.87 207.771 319.327 210.727C305.125 212.392 291.097 215.294 277.4 219.399C282.799 211.98 286.014 203.197 286.681 194.045C287.267 185.699 279.525 180.522 272.55 177.833C271.843 177.627 271.093 177.617 270.381 177.805C269.669 177.994 269.022 178.372 268.51 178.901C253.513 192.979 231.134 197.406 211.143 198.517C199.606 199.076 188.067 197.083 176.76 200.095C159.088 204.962 146.974 220.198 131.131 228.599C95.9686 247.244 70.4597 251.104 57.8 254.206C57.4928 250.679 57.8215 245.557 52.979 246.146C36.7998 248.691 18.5726 252.115 3.10101 257.602C2.35801 257.832 1.71947 258.316 1.29659 258.969C0.873718 259.622 0.693304 260.403 0.786773 261.175H0.762196V426.179C0.636234 426.671 0.636234 427.188 0.762196 427.681C2.86652 434.146 16.4929 422.575 20.0267 420.895C24.5118 418.248 55.4704 400.777 65.4923 395.126C68.9913 393.305 68.7906 389.306 68.7957 385.925C124.243 360.375 184.33 408.125 255.369 402.74C260.158 402.27 265.243 396.519 267.894 393.514C270.498 390.562 275.17 385.662 275.397 381.124C276.08 378.674 276.739 376.217 277.374 373.751C286.673 367.825 298.996 365.523 306.244 356.839C315.907 359.816 326.773 355.659 332.911 347.906C340.129 346.844 346.721 349.773 353.834 346.449C360.54 343.317 364.817 337.51 369.365 331.942C375.456 324.549 382.41 317.914 390.081 312.178C397.082 314.572 403.915 317.25 410.113 321.371C434.683 336.551 457.875 353.944 481.915 369.857C485.273 371.857 489.365 366.924 486.205 364.296C470.304 351.903 452.964 341.303 436.388 329.831ZM243.61 284.693C250.083 283.313 255.992 288.356 259.24 293.361C260.27 296.095 262.299 298.858 259.171 301.233C258.672 301.642 258.067 301.898 257.427 301.972C256.787 302.047 256.139 301.935 255.56 301.652C252.262 295.054 245.314 290.892 237.676 289.91C238.266 288.688 239.096 287.597 240.115 286.701C241.134 285.805 242.323 285.122 243.61 284.693ZM209.306 317.58C217.246 310.487 225.564 303.83 234.225 297.637C241.857 295.465 250.035 301.503 250.528 309.222C232.707 321.928 217.274 337.471 201.094 352.063C191.534 360.745 181.625 361.688 170.158 355.946C182.173 342.244 195.696 329.58 209.304 317.58H209.306ZM67.9325 378.04C63.5406 339.333 60.9386 300.483 58.4185 261.622L68.8521 259.248C72.6361 296.992 77.1802 334.647 82.4846 372.214C77.6404 374.17 72.7897 376.112 67.9325 378.04ZM268.608 378.678C266.509 385.771 261.118 391.736 254.923 395.557C224.367 395.989 193.968 391.108 165.083 381.132C140.603 373.1 116.005 366.086 90.5865 370.313C85.2678 332.208 80.2901 295.487 76.4737 257.205C109.344 252.672 136.722 235.815 162.409 215.792C175.958 204.272 193.06 206.444 209.513 206.473C231.554 205.574 254.827 200.955 272.365 186.761C278.611 189.744 279.549 192.917 277.54 199.427C272.531 225.24 244.536 233.387 221.656 238.05C218.194 238.255 215.323 239.725 212.207 242.118C202.377 250.152 192.18 258.073 180.19 262.667C174.373 264.944 167.902 265.402 162.27 267.867C159.522 269.07 160.397 273.499 163.089 274.14C166.837 275.034 171.068 274.392 175.035 273.355C158.049 286.413 140.897 299.238 123.578 311.83C122.743 312.353 122.139 313.175 121.89 314.128C121.64 315.081 121.763 316.093 122.233 316.959C127.024 326.54 136.885 329.167 146.76 328.305C141.347 332.396 135.715 336.191 129.89 339.671C129.103 340.151 128.534 340.917 128.3 341.808C128.067 342.699 128.187 343.645 128.637 344.449C131.49 348.966 135.742 352.425 140.745 354.299C143.502 358.458 153.799 359.703 158.533 359.508C161.588 366.339 170.417 369.771 177.494 371.022C187.218 372.782 197.252 371.069 205.841 366.182C207.691 365.105 209.692 362.764 211.789 362.329C214.334 361.802 217.984 363.046 220.622 363.148C230.7 363.494 238.93 361.996 247.861 355.848C246.604 361.361 244.392 366.611 241.323 371.36C241.074 371.819 240.979 372.346 241.054 372.864C241.129 373.381 241.369 373.86 241.739 374.229C242.108 374.599 242.588 374.839 243.105 374.913C243.622 374.988 244.149 374.893 244.608 374.644C261.884 365.735 249.216 327.6 280.988 321.082C280.985 321.087 273.311 362.533 268.608 378.678ZM289.978 360.008C286.833 361.481 282.879 362.918 279.533 364.966C290.285 284.377 312.55 286.687 312.55 286.687C312.939 288.595 312.047 291.407 312.243 293.419C311.202 301.591 310.161 309.764 309.12 317.937C306.62 334.959 308.797 352.426 289.978 360.008ZM314.742 350.215C313.288 350.316 311.827 350.293 310.377 350.145C314.153 341.369 314.349 331.211 315.574 321.858C316.914 310.453 318.674 299.055 319.802 287.644C320.153 285.995 320.132 284.288 319.74 282.649C320.331 280.439 321.112 278.285 322.073 276.21C326.345 270.923 332.134 267.198 339.497 266.83C343.327 266.636 343.462 268.889 342.681 272.174C341.85 275.665 340.875 279.111 340.121 282.619C333.511 303.098 341.895 345.226 314.746 350.215H314.742ZM384.093 307.864C375.081 314.886 367.822 322.955 360.596 331.746C353.892 340.27 347.803 342.951 337.11 341.53C341.763 332.621 342.878 322.248 343.664 311.936C352.945 306.853 361.293 300.144 371.933 297.928C376.532 297.091 386.282 296.187 387.843 301.956C388.362 304.825 386.063 306.332 384.097 307.864H384.093Z" fill="#E29F36"/>
</svg>
