<svg width="1657" height="187" viewBox="0 0 1657 187" fill="none" xmlns="http://www.w3.org/2000/svg">
<path d="M1650.23 174.877C1648.59 163.938 1645.12 154.621 1640.72 147.719C1644.15 124.098 1648.53 100.73 1653.84 77.8054C1648.37 93.8482 1643.37 110.386 1638.84 127.334C1638.82 126.585 1638.8 125.836 1638.77 125.088C1638.13 110.314 1636.41 96.1402 1637.63 81.6013C1634.98 95.6387 1635.25 110.835 1634.46 125.036C1634.16 130.42 1633.66 135.733 1632.87 140.773C1632.5 138.155 1632.08 135.583 1631.62 133.057C1630.54 126.956 1629.02 121.201 1627.73 115.315L1623.7 97.8393L1625.64 116.213C1626.19 121.891 1626.92 127.529 1627.3 133.181C1624.68 122.718 1620.89 113.446 1616.63 105.112C1616.59 104.923 1616.54 104.741 1616.51 104.552C1617.74 96.4135 1619.47 88.4117 1621.73 80.7287C1618.49 88.327 1615.76 96.5893 1613.59 105.307C1615.4 96.0815 1617.35 86.9012 1619.46 77.8054C1614.91 91.1462 1610.69 104.832 1606.78 118.805C1606.96 111.773 1606.75 104.761 1606.1 97.9046C1606.03 105.978 1605.37 113.941 1604.21 121.637C1603.48 108.101 1602.12 95.0072 1603.25 81.6013C1600.59 95.6387 1600.87 110.835 1600.08 125.036C1599.77 130.42 1599.29 135.733 1598.49 140.773C1598.12 138.155 1597.7 135.583 1597.24 133.057C1596.7 130.01 1596.04 127.047 1595.37 124.111C1595.39 123.831 1595.42 123.551 1595.43 123.271C1595.64 119.026 1595.53 114.768 1595.13 110.646C1595.77 104.005 1597.03 97.4032 1599.01 91.1657C1597.06 94.6165 1595.33 98.4774 1593.86 102.644C1593.69 101.85 1593.55 101.023 1593.35 100.249C1593.44 101.42 1593.48 102.579 1593.5 103.738C1592.91 105.451 1592.39 107.215 1591.89 109.019L1589.31 97.8393L1590.9 112.886C1590.27 115.608 1589.72 118.401 1589.29 121.266C1587.84 117.261 1586.24 113.453 1584.53 109.813C1584.44 105.809 1584.22 101.831 1583.85 97.9046C1583.82 101.16 1583.7 104.396 1583.48 107.606C1583.07 106.753 1582.65 105.893 1582.22 105.06C1582.62 106.284 1583.02 107.528 1583.41 108.771C1583.14 112.398 1582.77 115.985 1582.28 119.514C1581.43 114.774 1580.8 109.891 1580.46 104.917C1579.06 84.3813 1582.38 62.3485 1590.07 44.4109C1581.52 59.0474 1575.9 78.8276 1574.63 99.962C1571.64 109.149 1569.15 118.85 1567.21 128.922C1566.54 124.99 1565.74 121.135 1564.79 117.392C1567.21 104.077 1569.92 90.8597 1572.95 77.7989C1569.35 88.3401 1565.95 99.096 1562.76 110.041C1561.86 107.124 1560.88 104.292 1559.82 101.551C1560.7 105.177 1561.43 108.863 1562.03 112.587C1560.63 117.463 1559.26 122.379 1557.94 127.327C1557.92 126.579 1557.91 125.83 1557.87 125.081C1557.73 121.708 1557.52 118.362 1557.31 115.041C1558.56 105.561 1560.46 96.2312 1563.08 87.3244C1560.66 92.9889 1558.55 99.0244 1556.72 105.333C1556.29 97.4292 1556.06 89.5641 1556.73 81.5947C1554.63 92.7348 1554.36 104.604 1553.95 116.129C1552.67 121.819 1551.63 127.679 1550.83 133.669C1550.8 133.467 1550.76 133.252 1550.73 133.05C1549.64 126.95 1548.13 121.194 1546.83 115.308L1542.8 97.833L1544.75 116.207C1545.29 121.884 1546.02 127.523 1546.4 133.174C1544.24 124.547 1541.29 116.741 1537.92 109.598C1539.97 98.9202 1542.19 88.3076 1544.63 77.7989C1541.55 86.823 1538.64 96.0229 1535.85 105.34C1535.81 105.262 1535.77 105.184 1535.73 105.106C1535.44 103.445 1535.11 101.811 1534.7 100.242C1534.92 103.178 1534.92 106.095 1534.76 108.954C1532.98 115.015 1531.28 121.149 1529.63 127.327C1529.6 126.579 1529.59 125.83 1529.56 125.081C1529.41 121.708 1529.2 118.362 1529 115.041C1530.24 105.561 1532.15 96.2312 1534.76 87.3244C1532.35 92.9889 1530.23 99.0244 1528.4 105.333C1527.97 97.4292 1527.75 89.5641 1528.42 81.5947C1526.31 92.7348 1526.05 104.604 1525.63 116.129C1524.35 121.819 1523.31 127.679 1522.52 133.669C1522.47 133.467 1522.44 133.252 1522.4 133.05C1521.32 126.95 1519.81 121.194 1518.51 115.308L1514.48 97.833L1516.42 116.207C1516.97 121.884 1517.71 127.523 1518.09 133.174C1515.46 122.711 1511.68 113.44 1507.41 105.106C1507.12 103.445 1506.79 101.811 1506.39 100.242C1506.93 107.808 1506.15 115.217 1504.6 121.917C1503.05 128.636 1500.72 134.724 1497.97 140.011C1497 141.873 1495.96 143.624 1494.9 145.33C1497.65 129.717 1498.34 113.42 1496.88 97.8915C1496.69 120.426 1492 142.107 1484.25 159.329C1483.95 159.674 1483.65 160.026 1483.33 160.371C1482.68 137.81 1484.89 114.612 1490.09 92.8C1485.98 104.031 1482.69 116.194 1480.24 128.916C1478.78 120.367 1476.67 112.209 1474.01 104.695C1475.11 98.7836 1476.47 92.9627 1478.13 87.3177C1476.19 91.8624 1474.44 96.648 1472.87 101.622C1472.87 101.596 1472.87 101.57 1472.85 101.551C1472.86 101.583 1472.87 101.616 1472.87 101.642C1468.78 114.657 1466.01 128.994 1464.78 143.872C1464.15 144.784 1463.47 145.805 1462.75 146.931C1461.81 125.862 1464.2 103.901 1470.04 84.0168C1462.67 101.31 1457.94 122.021 1456.46 143.76C1456.52 133.832 1455.78 124.091 1454.28 114.898C1453.53 130.238 1450.66 144.692 1446.32 157.108L1445.51 156.977C1443.7 152.935 1441.96 148.761 1440.33 144.457C1440.02 125.185 1442.48 105.392 1447.79 87.3177C1442.2 100.444 1438.13 115.549 1435.84 131.566C1433.28 123.577 1431 115.256 1429.08 106.623C1429.22 110.829 1429.48 115.041 1429.79 119.26C1426.81 101.225 1420.57 80.1884 1407.56 66.9321C1389.34 48.363 1372.68 66.6913 1364 80.0712C1363.98 79.583 1363.94 79.0946 1363.92 78.6062C1363.87 79.2117 1363.82 79.8173 1363.77 80.4227C1359.92 86.4128 1357.7 91.3221 1357.7 91.3221C1357.7 91.3221 1359.92 88.6721 1363.42 85.1107C1362.15 101.616 1361.19 118.245 1360.53 134.952C1357.39 141.157 1353.63 143.76 1353.63 143.76C1349.42 131.735 1348.13 110.978 1347.87 93.8417C1348.07 90.8727 1348.29 87.9038 1348.56 84.9413C1351.04 56.9118 1355.81 29.1753 1360.89 1.69281C1353.92 28.0555 1347.19 54.7437 1342.61 82.962C1340.49 96.1075 1338.87 109.598 1338.01 123.375C1337.67 114.026 1336.96 104.845 1336.05 95.8016C1334.85 83.9777 1333.44 72.4404 1331.96 60.7794C1330.42 49.1704 1328.4 37.3791 1324.58 27.2611C1327.48 38.1539 1328.43 49.841 1328.96 61.489C1329.42 73.1956 1329.84 85.0584 1330.01 96.7065C1330.17 108.381 1329.99 119.957 1329.13 131.175C1328.68 136.781 1328.04 142.27 1327.23 147.622C1327.12 148.319 1326.97 148.983 1326.86 149.666C1326.53 124.417 1324.03 99.6104 1319.47 76.2297C1320.84 98.9983 1320.27 121.734 1317.95 143.656C1314.09 151.698 1311.37 142.022 1309.52 128.2C1309.12 123.011 1308.72 118.069 1308.52 112.932C1307.8 96.316 1308.31 79.2052 1310.13 62.1011C1304.83 77.1477 1300.53 93.5487 1297.47 110.907C1297.03 113.303 1296.64 115.758 1296.27 118.219C1295.55 108.713 1295.16 99.0701 1295.14 89.3493C1292.09 108.042 1290.36 127.601 1290.03 147.518C1287.95 140.18 1286.38 132.211 1285.31 123.935C1283.46 109.631 1282.95 94.5384 1283.08 79.4397C1281.88 87.7476 1280.87 96.1856 1280.19 104.774C1276.49 75.4418 1270.72 67.8893 1270.72 67.8893C1280.83 94.2714 1272.74 150.343 1272.74 150.343C1264.06 146.294 1261.47 136.052 1260.76 128.734C1262.06 121.441 1262.88 114.026 1263.33 106.649C1264.11 93.9459 1263.76 81.3537 1262.9 69.0352C1262.05 56.7035 1260.68 44.5997 1259.31 32.5155C1259.67 44.7951 1260.04 57.0878 1259.87 69.2697C1259.71 81.4385 1259.04 93.5227 1257.34 105.04C1256.05 114.045 1254.12 122.698 1251.54 130.57C1252.17 123.766 1252.3 116.91 1251.94 110.171C1251.3 98.4449 1249.31 87.2332 1246.52 76.8353C1243.73 66.4243 1240.15 56.7752 1236.16 47.7511C1239.3 57.6345 1241.91 67.9283 1243.66 78.4825C1245.42 89.0237 1246.27 99.8383 1245.87 110.36C1245.49 120.79 1243.77 130.98 1240.89 139.828C1239.49 144.139 1237.8 148.097 1235.88 151.58C1230.47 134.886 1229.82 112.098 1235.98 92.8C1230.77 102.013 1227.16 114.13 1225.66 127.256C1225.12 131.97 1224.86 136.84 1224.89 141.762C1220.93 131.273 1218.28 119.189 1217.43 106.545C1217.11 101.857 1217.07 97.0841 1217.23 92.3052C1224.96 36.0705 1247.88 21.7139 1247.88 21.7139C1214.49 24.6438 1204.2 111.161 1202.31 130.57C1198.14 124.502 1193.87 120.654 1193.87 120.654C1194.67 127.152 1194.52 133.116 1194.05 137.979C1192.45 133.422 1191.15 128.441 1190.22 123.134C1189.74 127.451 1189.55 131.944 1189.58 136.501C1184.99 118.316 1175.67 107.463 1175.67 107.463C1180.31 113.14 1179.63 127.503 1178.2 138.722C1177.47 133.786 1176.94 128.532 1176.47 123.271C1173.6 129.678 1170.69 136.104 1168.36 144.035C1168.32 144.145 1168.3 144.263 1168.26 144.367C1168.21 144.048 1168.14 143.748 1168.09 143.428C1167.09 136.898 1166.83 129.71 1167.15 122.49C1167.78 107.873 1170.57 92.8585 1172.05 77.7338C1168.63 91.9992 1164.01 105.242 1161.19 120.667C1160.27 125.752 1159.62 131.052 1159.29 136.521L1156.9 128.805C1157.37 124.977 1157.73 121.168 1158.03 117.327C1158.55 110.184 1158.74 103.029 1158.63 95.9578C1157.73 102.885 1156.55 109.65 1155.08 116.187C1153.59 122.672 1151.87 129.15 1149.82 134.808C1147.73 140.525 1145.24 144.992 1142.16 147.987C1142.05 148.091 1141.94 148.175 1141.83 148.273C1147.33 123.154 1148.92 96.4266 1146.62 71.2033C1146.2 87.1421 1144.2 102.69 1140.92 117.229C1143.31 95.0658 1145.56 72.8765 1147.61 50.6679C1141.85 79.5307 1135.8 108.205 1129.48 136.677C1129.33 133.493 1129.12 130.361 1128.9 127.282C1129.36 116.409 1130.35 105.399 1131.49 94.3366L1138.97 25.7116L1125.59 91.9992C1123.98 100.261 1122.43 108.622 1121.12 117.203C1120.08 111.245 1119.3 105.119 1118.8 98.8812C1119.77 94.5384 1120.82 90.2283 1122.06 86.0027C1120.81 88.4898 1119.61 91.068 1118.47 93.705C1118.28 90.3518 1118.17 86.9663 1118.16 83.5676C1117.5 88.2684 1117.03 93.067 1116.7 97.9176C1111.65 110.386 1107.67 124.319 1105 139.158C1101.06 112.834 1100.01 84.8697 1102.19 57.1007C1097.08 83.6392 1094.94 112.131 1096 140.773C1092.5 133.936 1090.73 123.948 1090.73 123.948C1091.19 131.488 1090.7 136.937 1089.67 140.896C1089.64 140.505 1089.62 140.095 1089.61 139.711L1088.93 127.659L1086.26 79.4397L1077.87 125.875L1075.76 137.484C1075.48 139.086 1075.19 140.649 1074.91 142.186L1072.53 130.544L1071.35 133.532C1073.02 124.326 1074.63 115.1 1076.14 105.854C1071.44 119.475 1066.55 132.862 1061.5 146.046C1066.56 108.374 1073.33 71.0927 1081.79 34.638C1074.08 57.2049 1067.06 80.4748 1060.68 104.311C1060.64 103.263 1060.63 102.202 1060.58 101.153C1060.13 90.7296 1059.3 80.5921 1058.8 70.4545C1058.3 60.3301 1058.11 50.147 1058.98 39.9705C1057.12 49.7825 1056.27 60.1543 1055.77 70.4481C1055.26 80.7549 1055.07 91.0486 1054.52 101.075C1054.09 108.654 1053.4 116.129 1052.28 123.212C1051.75 119.527 1051.17 115.907 1050.52 112.359C1048.92 103.816 1047.15 95.5671 1045.29 87.2917C1043.43 79.0424 1041.45 70.8842 1039.37 62.8238C1040.48 71.3857 1041.48 79.9606 1042.36 88.5615C1043.16 96.5307 1043.88 104.565 1044.44 112.495C1040.75 97.8134 1035.44 84.8112 1029.46 73.111C1029.05 70.7476 1028.57 68.4362 1027.99 66.2095C1028.76 76.8484 1027.66 87.2788 1025.48 96.7065C1023.29 106.16 1020.03 114.729 1016.16 122.158C1014.78 124.775 1013.32 127.243 1011.83 129.639C1015.71 107.677 1016.68 84.746 1014.63 62.9085C1014.36 94.6036 1007.76 125.114 996.858 149.334C996.409 149.836 995.969 150.35 995.512 150.851C994.597 119.104 997.747 86.4323 1005.07 55.7399C999.292 71.5159 994.64 88.5744 991.197 106.434C988.841 92.7479 985.345 79.7717 980.815 68.0455C986.649 92.1229 988.167 118.141 985.786 142.433C983.775 132.738 981.522 123.942 981.522 123.942C985.57 140.433 981.522 153.625 981.522 153.625L975.714 118.883C974.903 107.313 973.358 96.1011 971.468 85.1561C971.882 99.5908 971.675 114.052 970.156 127.796C969.725 131.722 969.164 135.577 968.499 139.327C966.782 130.68 964.573 122.438 961.889 114.82C963.571 129.619 963.537 144.464 962.027 158.43C960.801 159.309 959.765 158.32 958.911 156.307C958.911 154.946 958.885 153.605 958.842 152.316C958.54 144.145 957.522 137.1 956.374 130.088C954.001 116.109 950.419 103.133 945.931 91.6085C946.941 105.171 946.665 118.551 945.275 131.162C944.55 137.432 943.636 143.775 942.289 148.827C941.349 152.499 940.149 155.442 938.889 157.44C937.974 156.568 937.197 154.993 936.55 152.941C932.9 118.512 935.808 81.2106 945.56 48.0245C936.982 68.1627 930.949 91.5954 927.937 116.409C927.238 107.716 926.712 98.9593 926.384 90.137C924.459 106.85 923.217 123.916 922.673 141.176C920.446 133.545 917.978 126.175 915.268 119.15C917.762 105.229 920.576 91.4133 923.743 77.7729C918.271 93.8157 913.275 110.353 908.744 127.301C908.718 126.553 908.709 125.804 908.675 125.055C908.027 110.282 906.31 96.1075 907.535 81.5687C904.877 95.6062 905.154 110.803 904.36 125.003C904.066 130.387 903.574 135.7 902.78 140.74C902.4 138.122 901.986 135.551 901.52 133.024C900.441 126.924 898.931 121.168 897.628 115.282L893.598 97.807L895.54 116.181C896.1 121.858 896.825 127.497 897.205 133.148C894.581 122.685 890.793 113.414 886.53 105.08C886.236 103.419 885.908 101.785 885.503 100.216C886.046 107.782 885.269 115.191 883.716 121.891C882.258 128.206 880.1 133.942 877.563 139.001C880.782 118.336 884.7 97.8786 889.369 77.7729C884.812 91.1138 880.592 104.8 876.682 118.772C876.872 111.74 876.648 104.728 876.009 97.872C875.94 105.946 875.276 113.908 874.119 121.604C873.394 108.068 872.022 94.9747 873.153 81.5687C870.503 95.6062 870.779 110.803 869.985 125.003C869.683 130.387 869.191 135.7 868.397 140.74C868.026 138.122 867.604 135.551 867.146 133.024C866.059 126.924 864.548 121.168 863.245 115.282L859.214 97.807L861.158 116.181C861.71 121.858 862.44 127.497 862.82 133.148C860.196 122.685 856.412 113.414 852.148 105.08C851.856 103.419 851.529 101.785 851.117 100.216C851.66 107.782 850.89 115.191 849.337 121.891C847.78 128.61 845.46 134.698 842.705 139.985C841.731 141.846 840.697 143.599 839.631 145.304C842.39 129.691 843.081 113.394 841.62 97.8655C841.428 120.4 836.732 142.081 828.987 159.302C828.68 159.647 828.377 159.999 828.065 160.344C827.414 137.784 829.622 114.585 834.829 92.774C830.716 104.005 827.426 116.168 824.979 128.89C823.305 119.137 820.818 109.878 817.589 101.525C822.951 123.649 823.198 148.084 818.938 169.187L813.668 162.942C814.334 156.704 814.506 150.461 814.319 144.419C813.983 133.773 812.654 123.577 810.949 113.687C811.24 123.948 811.093 134.222 810.015 143.995C809.268 150.851 807.987 157.388 806.182 163.249C804.813 163.626 803.371 163.983 802.022 164.224C802.022 163.267 802.01 162.33 801.974 161.419C801.758 155.611 801.035 150.603 800.221 145.617C798.532 135.681 795.989 126.455 792.795 118.264C793.514 127.907 793.318 137.413 792.332 146.378C791.825 150.774 791.186 155.207 790.252 158.775C788.786 157.948 787.205 157.121 785.629 156.334C783.88 133.435 786.127 109.11 792.535 87.2852C789.238 95.0268 786.475 103.465 784.283 112.359C783.964 108.12 783.353 104.005 782.359 100.203C782.901 107.769 782.131 115.178 780.578 121.878C779.788 125.289 778.793 128.538 777.652 131.605C777.316 126.832 777.06 122.034 776.881 117.209C776.103 123.974 775.484 130.824 775.02 137.732C774.661 138.481 774.318 139.249 773.942 139.972C772.972 141.834 771.934 143.585 770.868 145.29C773.627 129.678 774.318 113.381 772.857 97.8526C772.665 120.387 767.974 142.067 760.224 159.29C759.917 159.635 759.614 159.986 759.302 160.331C758.651 137.771 760.859 114.572 766.066 92.7609C761.953 103.992 758.663 116.155 756.216 128.877C754.543 119.124 752.055 109.865 748.826 101.512C753.964 122.711 754.395 146.026 750.675 166.51C748.61 167.415 746.199 168.014 744.366 167.194C745.488 159.556 745.792 151.828 745.556 144.412C745.364 138.35 744.829 132.451 744.107 126.657C745.36 119.495 746.175 112.216 746.61 104.975C747.392 92.2726 747.033 79.6805 746.182 67.3618C745.328 55.0301 743.958 42.9263 742.593 30.8356C742.957 43.1152 743.316 55.4079 743.152 67.5898C742.988 79.7586 742.314 91.843 740.625 103.367C739.323 112.372 737.391 121.025 734.812 128.896C735.443 122.093 735.579 115.237 735.22 108.498C734.58 96.7717 732.588 85.5599 729.801 75.162C727.01 64.7511 723.433 55.1018 719.433 46.0777C722.575 55.9613 725.194 66.255 726.942 76.8092C728.692 87.3504 729.546 98.165 729.154 108.687C728.923 114.97 728.196 121.155 727.035 127.021C726.104 124 725.122 121.051 724.032 118.264C724.531 124.951 724.56 131.559 724.219 137.979C724.2 138.038 724.184 138.096 724.168 138.155C722.77 142.466 721.078 146.423 719.157 149.907C717.976 146.254 717.021 142.309 716.315 138.174C716.578 120.901 719.034 103.406 723.769 87.2852C720.471 95.0268 717.708 103.465 715.516 112.359C715.472 111.773 715.429 111.187 715.368 110.607C716.007 103.966 717.265 97.3642 719.253 91.1267C717.301 94.5775 715.572 98.4385 714.099 102.605C713.927 101.811 713.792 100.984 713.592 100.209C713.676 101.381 713.72 102.54 713.74 103.699C711.472 110.379 709.819 117.795 708.933 125.582C708.829 126.481 708.761 127.399 708.681 128.304C708.45 124.619 708.254 120.927 708.118 117.216C707.435 123.134 706.888 129.118 706.449 135.14C705.671 132.725 704.944 130.257 704.305 127.712C705.064 117.698 705.016 107.625 704.097 97.8526C704.034 105.19 703.487 112.43 702.521 119.462C701.662 114.722 701.035 109.839 700.7 104.865C699.302 84.3293 702.624 62.2964 710.314 44.3588C701.762 58.9953 696.145 78.7755 694.871 99.9099C691.877 109.097 689.39 118.798 687.453 128.87C685.781 119.117 683.292 109.859 680.063 101.505C684.706 120.647 685.513 141.521 682.889 160.475L676.813 152.889C676.889 150.03 676.881 147.199 676.793 144.405C676.454 133.76 675.128 123.564 673.423 113.674C673.715 123.935 673.567 134.209 672.489 143.983C671.982 148.624 671.227 153.129 670.245 157.381C668.552 159.446 666.533 161.229 664.452 161.646C664.448 161.568 664.448 161.484 664.448 161.412C664.233 155.604 663.51 150.598 662.696 145.61C661.166 136.612 658.907 128.232 656.124 120.641C658.687 106.206 661.598 91.895 664.876 77.7533C659.401 93.7962 654.403 110.334 649.872 127.282C649.848 126.533 649.836 125.784 649.804 125.036C649.656 121.663 649.453 118.316 649.241 114.996C650.482 105.516 652.391 96.1856 655.006 87.2788C652.594 92.9433 650.479 98.9789 648.65 105.288C648.215 97.3838 647.991 89.5185 648.662 81.5491C646.554 92.6892 646.29 104.559 645.875 116.083C644.597 121.773 643.551 127.64 642.757 133.623C642.721 133.422 642.685 133.207 642.649 133.005C641.739 127.874 640.529 122.991 639.391 118.062C639.379 117.776 639.363 117.496 639.351 117.209C639.331 117.366 639.319 117.522 639.303 117.678C639.12 116.871 638.928 116.07 638.753 115.263L634.724 97.7874L636.669 116.161C637.116 120.764 637.69 125.342 638.093 129.919C638.046 130.472 637.99 131.019 637.946 131.579C635.343 121.741 631.71 112.99 627.657 105.066C627.47 104.005 627.258 102.97 627.03 101.941C635.103 37.6396 668.038 21.6878 668.038 21.6878C630.376 24.2466 615.5 90.6904 610.717 120.354C609.807 115.907 608.721 111.389 607.436 106.883C608.274 102.13 609.228 97.4097 610.338 92.7609C608.996 96.42 607.775 100.216 606.613 104.064C602.105 89.3036 595.326 74.9667 585.121 64.5688C552.762 31.5845 524.447 94.2519 524.447 94.2519C524.447 94.2519 554.782 57.9732 572.984 64.5688C583.368 68.332 591.777 101.082 597.083 129.131C597.758 140.936 597.206 152.74 595.414 163.802L589.217 162.493C589.848 156.405 590.008 150.31 589.82 144.412C589.485 133.767 588.156 123.571 586.45 113.68C586.742 123.942 586.594 134.216 585.516 143.988C584.77 150.826 583.496 157.343 581.699 163.19L577.52 164.596C577.523 163.509 577.511 162.441 577.476 161.412C577.26 155.604 576.538 150.598 575.726 145.61C574.038 135.674 571.495 126.448 568.297 118.258C569.016 127.9 568.82 137.406 567.833 146.371C567.319 150.831 566.672 155.338 565.714 158.931C565.63 159.27 565.525 159.55 565.434 159.87L560.983 154.282C559.517 131.989 561.821 108.459 568.037 87.2852C560.228 105.633 555.369 127.816 554.219 150.994L551.077 152.036C551.891 138.689 551.249 125.472 549.249 113.218C548.478 128.955 545.488 143.755 540.956 156.379C533.981 141.02 528.224 123.668 524.048 104.943C524.259 111.063 524.659 117.203 525.209 123.343C518.303 153.117 508.629 145.714 505.949 142.908C508.86 129.294 512.126 115.79 515.831 102.482C508.501 116.018 501.606 130.368 495.15 145.394L496.064 132.119L498.615 95.0593L490.179 129.717L485.964 147.05C485.708 148.084 485.448 149.152 485.193 150.22C485.92 143.787 486.127 137.387 485.903 131.149C485.365 116.877 482.913 103.777 480.33 90.977C480.949 104.416 481.304 118.004 479.843 130.589C479.212 136.182 478.15 141.573 476.74 146.475C471.343 144.164 464.863 127.119 461.649 117.717C460.536 104.194 459.593 90.5928 458.886 76.9199C457.357 95.5606 456.255 114.364 455.501 133.259C452.363 139.464 448.609 142.069 448.609 142.069C444.394 130.042 443.108 109.286 442.84 92.1489C443.048 89.1799 443.267 86.211 443.535 83.2485C446.019 55.219 450.789 27.4825 455.864 0C448.893 26.3626 442.17 53.0509 437.59 81.2692C435.462 94.4147 433.854 107.912 432.987 121.682C432.648 112.333 431.932 103.152 431.031 94.1086C429.828 82.2849 428.423 70.7476 426.938 59.0865C425.401 47.4776 423.373 35.6929 419.56 25.5683C422.463 36.4612 423.405 48.1482 423.936 59.7963C424.403 71.5029 424.814 83.3658 424.986 95.0137C425.146 106.681 424.966 118.264 424.103 129.482C423.656 135.088 423.017 140.577 422.207 145.929C422.095 146.626 421.952 147.29 421.832 147.973C421.508 122.724 419.005 97.9176 414.449 74.5369C415.811 97.3055 415.24 120.042 412.924 141.97C409.06 150.011 406.341 140.336 404.496 126.513C404.089 121.324 403.69 116.383 403.494 111.245C402.775 94.6296 403.287 77.519 405.107 60.4147C399.801 75.4615 395.505 91.8624 392.443 109.22C392.008 111.617 391.612 114.071 391.241 116.532C390.526 107.026 390.139 97.3902 390.111 87.663C387.065 106.356 385.336 125.914 385.009 145.831C382.925 138.494 381.356 130.524 380.29 122.242C378.433 107.938 377.922 92.8456 378.054 77.7467C376.852 86.0546 375.842 94.4928 375.159 103.074C371.467 73.7425 365.69 66.1898 365.69 66.1898C375.802 92.5721 367.713 148.644 367.713 148.644C359.026 144.594 356.442 134.353 355.732 127.034C357.029 119.742 357.86 112.326 358.303 104.949C359.086 92.2466 358.727 79.6544 357.876 67.3357C357.021 55.0041 355.652 42.9003 354.286 30.8096C354.65 43.0892 355.01 55.3818 354.846 67.5637C354.682 79.7326 354.007 91.8168 352.318 103.341C351.016 112.346 349.084 120.999 346.505 128.87C347.136 122.066 347.272 115.211 346.913 108.472C346.273 96.7456 344.281 85.5337 341.495 75.1358C338.704 64.7249 335.127 55.0757 331.126 46.0516C334.272 55.9352 336.887 66.229 338.636 76.7832C340.385 87.3244 341.239 98.139 340.847 108.661C340.461 119.091 338.743 129.281 335.861 138.129C334.464 142.439 332.771 146.398 330.85 149.881C325.441 133.187 324.79 110.399 330.95 91.1007C325.74 100.314 322.127 112.43 320.629 125.556C320.091 130.27 319.831 135.14 319.855 140.063C315.895 129.574 313.248 117.489 312.394 104.845C310.996 84.3097 314.317 62.2768 322.007 44.3392C312.748 60.1869 306.915 82.0506 306.328 105.145C305.933 121.051 308.025 137.289 312.426 152.063L310.421 151.788C309.499 148.82 308.616 145.805 307.762 142.758C306.828 126.774 302.931 97.0256 287.149 80.9372C264.871 58.2335 245.379 101.375 245.379 101.375C245.379 101.375 254.925 89.9677 264.978 83.9777C261.916 95.3522 258.443 106.447 256.147 118.98C255.232 124.065 254.582 129.365 254.255 134.834L251.863 127.119C252.334 123.291 252.698 119.482 252.993 115.64C253.52 108.491 253.712 101.342 253.592 94.2714C252.701 101.199 251.515 107.964 250.042 114.501C248.557 120.986 246.84 127.464 244.78 133.122C242.696 138.839 240.201 143.304 237.127 146.301C237.019 146.405 236.903 146.489 236.796 146.586C242.293 121.468 243.89 94.7402 241.579 69.5169C241.155 85.4558 239.163 101.004 235.885 115.543C238.272 93.3794 240.516 71.1902 242.573 48.9815C236.807 77.8444 230.762 106.518 224.442 134.991C224.29 131.807 224.083 128.682 223.863 125.595C224.319 114.722 225.309 103.712 226.451 92.6502L233.933 24.0252L220.554 90.3128C218.941 98.5686 217.384 106.935 216.075 115.517C215.048 109.559 214.266 103.432 213.767 97.1949C214.733 92.8521 215.783 88.5419 217.016 84.3163C215.766 86.81 214.573 89.3817 213.423 92.0186C213.24 88.6655 213.132 85.28 213.116 81.8812C212.461 86.5821 211.982 91.3806 211.654 96.2312C206.604 108.7 202.628 122.633 199.96 137.471C196.016 111.148 194.97 83.1834 197.154 55.4144C192.047 81.9463 189.899 110.445 190.965 139.086C187.456 132.25 185.691 122.262 185.691 122.262C186.154 129.802 185.659 135.251 184.63 139.21C184.61 138.819 184.589 138.409 184.566 138.025L183.894 125.973L181.22 77.7533L172.828 124.189L170.727 135.798C170.44 137.4 170.152 138.962 169.869 140.499L167.489 128.857L166.308 131.846C167.977 122.64 169.593 113.413 171.099 104.168C166.403 117.789 161.508 131.175 156.462 144.36C161.52 106.688 168.288 69.4063 176.744 32.9517C169.042 55.5185 162.011 78.7885 155.635 102.625C155.6 101.577 155.584 100.515 155.54 99.4671C155.085 89.0432 154.258 78.9057 153.755 68.7682C153.252 58.6438 153.069 48.4607 153.939 38.2842C152.078 48.0962 151.228 58.468 150.725 68.7617C150.218 79.0685 150.03 89.3623 149.475 99.389C149.052 106.968 148.365 114.442 147.243 121.526C146.716 117.841 146.129 114.221 145.483 110.672C143.878 102.13 142.109 93.8807 140.249 85.6054C138.388 77.356 136.408 69.1979 134.332 61.1374C135.446 69.6993 136.448 78.2742 137.318 86.8751C138.12 94.8444 138.839 102.885 139.394 110.809C135.709 96.1271 130.399 83.1248 124.423 71.4247C124.007 69.0612 123.524 66.7498 122.941 64.5232C123.708 75.1685 122.618 85.5924 120.438 95.0202C118.246 104.467 114.984 113.043 111.107 120.471C109.738 123.089 108.281 125.556 106.783 127.952C110.664 105.991 111.634 83.0597 109.582 61.2221C109.315 92.9172 102.711 123.427 91.8116 147.648C91.3646 148.149 90.9253 148.664 90.4705 149.165C89.5522 117.418 92.7022 84.746 100.028 54.0535C94.2514 69.8295 89.5919 86.8816 86.1502 104.748C83.7986 91.0616 80.3052 78.0853 75.7697 66.3592C81.6067 90.4365 83.1199 116.454 80.7403 140.746C78.7281 131.052 76.4804 122.255 76.4804 122.255C80.5248 138.747 76.4804 151.939 76.4804 151.939L70.6712 117.196C69.8608 105.626 68.3157 94.4147 66.4272 83.4699C66.8385 97.9046 66.6268 112.365 65.1097 126.11C64.6825 130.036 64.1196 133.89 63.4528 137.641C61.736 128.994 59.5282 120.751 56.8412 113.134C58.5261 127.933 58.4901 142.778 56.985 156.744C55.7553 157.623 54.7212 156.633 53.8629 154.621C53.8629 153.26 53.8428 151.919 53.7949 150.63C53.4915 142.459 52.4735 135.414 51.3316 128.402C48.9561 114.423 45.3788 101.447 40.8832 89.9221C41.8933 103.484 41.6178 116.864 40.2284 129.476C39.5058 135.746 38.5955 142.087 37.2461 147.14C36.3078 150.806 35.106 153.756 33.8404 155.754C32.9261 154.882 32.1556 153.305 31.5048 151.255C27.8597 116.825 30.7662 79.5243 40.5119 46.3382C31.94 66.4764 25.9074 89.9092 22.893 114.722C22.1943 106.03 21.6633 97.273 21.3399 88.4507C19.4156 105.164 18.1699 122.229 17.6309 139.49C15.3871 131.813 12.9038 124.41 10.1769 117.346C11.5703 127.06 12.5324 136.827 13.0674 146.534C13.331 151.424 13.5306 156.223 13.291 160.475C13.2431 161.484 13.1553 162.454 13.0515 163.378C10.1289 152.707 5.40984 144.211 0 138.949C4.25202 150.526 5.04253 163.867 3.11415 174.349L5.55755 174.284L1.64491 184.916H96.5945L96.8258 185.352C96.9017 185.21 96.982 185.059 97.0579 184.916H546.354L550.738 186.564H906.681H926.91H1001.63L1001.86 187C1001.94 186.856 1002.02 186.707 1002.1 186.564H1280.83H1454.76H1636.78H1657L1650.23 174.877ZM127.041 145.421C118.953 155.318 127.041 112.437 127.041 112.437L122.822 120.693C124.438 112.945 125.5 104.982 125.876 96.98C126.287 88.3661 125.844 79.7 124.455 71.6786C129.242 86.1264 132.942 101.486 134.428 117.06C134.958 122.555 135.186 128.089 135.122 133.532L131.086 125.628C131.086 125.628 135.134 135.525 127.041 145.421ZM208.457 144.003C208.556 133.057 209.463 121.975 211.16 111.057C211.16 120.354 211.742 129.756 212.928 139.066C211.958 141.561 210.393 143.083 208.457 144.003ZM289.017 136.365C287.424 131.807 286.115 126.826 285.189 121.52C284.713 125.836 284.517 130.329 284.549 134.886C279.954 116.701 270.636 105.848 270.636 105.848C275.279 111.525 274.593 125.888 273.163 137.107C272.437 132.171 271.917 126.917 271.434 121.656C268.568 128.063 265.657 134.489 263.326 142.419C263.294 142.53 263.265 142.647 263.233 142.751C263.182 142.433 263.106 142.133 263.058 141.814C262.056 135.284 261.8 128.096 262.116 120.875C262.647 108.589 264.695 96.0228 266.22 83.3461C270.64 80.9241 275.084 79.674 278.796 81.0153C286.095 83.6586 291.968 107.085 295.609 126.644C292.044 121.93 288.838 119.039 288.838 119.039C289.632 125.53 289.484 131.494 289.017 136.365ZM625.625 118.082C625.884 113.186 626.267 108.517 626.779 104.083C626.855 108.901 626.424 113.615 625.625 118.082ZM635.195 152.44C632.365 154.55 629.306 157.46 626.547 159.81C626.072 154.433 625.765 149.301 625.557 144.315C627.254 137.51 628.38 130.413 628.715 123.271C629.007 117.112 628.675 110.926 627.677 105.203C631.094 115.497 633.733 126.442 634.792 137.543C635.275 142.53 635.403 147.556 635.195 152.44ZM654.802 146.43C654.459 149.413 654.044 152.395 653.529 155.129C652.375 155.611 651.349 156.744 650.371 157.629C651.879 146.326 653.609 135.069 655.552 123.883C655.848 131.605 655.596 139.197 654.802 146.43ZM691.465 159.342C691.158 159.687 690.854 160.038 690.543 160.383C690.02 142.243 691.374 123.701 694.632 105.783C694.38 117.698 695.526 129.782 697.985 141.293C696.164 147.694 693.977 153.756 691.465 159.342ZM858.3 164.85C857.733 165.448 857.166 166.048 856.591 166.646L857.525 168.404C857.517 168.438 857.51 168.47 857.502 168.503C852.055 169.44 846.582 168.691 843.608 163.534C845.819 158.248 847.827 152.688 849.449 146.762C851.505 139.229 852.83 131.273 853.206 123.271C853.497 117.112 853.166 110.926 852.167 105.203C855.585 115.497 858.224 126.442 859.282 137.543C860.188 146.912 859.901 156.431 858.3 164.85ZM892.64 165.078C888.558 167.116 883.034 168.339 877.252 165.235C879.755 159.446 882.033 153.338 883.828 146.762C885.882 139.229 887.211 131.273 887.582 123.271C887.876 117.112 887.548 110.926 886.547 105.203C889.964 115.497 892.605 126.442 893.658 137.543C894.573 146.997 894.279 156.6 892.64 165.078ZM908.718 161.692C908.804 161.048 908.882 160.396 908.968 159.751C909.011 160.416 909.037 161.08 909.063 161.744L908.718 161.692ZM918.332 162.206C918.28 163.215 918.202 164.186 918.099 165.111C916.243 158.333 913.654 152.467 910.625 147.719C912.015 138.194 913.559 128.708 915.251 119.273C916.623 128.922 917.581 138.617 918.107 148.26C918.375 153.149 918.582 157.954 918.332 162.206ZM1032.08 147.068C1023.99 156.965 1032.08 114.091 1032.08 114.091L1027.86 122.347C1029.47 114.599 1030.53 106.636 1030.91 98.6338C1031.33 90.0198 1030.88 81.3539 1029.49 73.3324C1034.28 87.7801 1037.97 103.139 1039.47 118.713C1039.99 124.209 1040.22 129.743 1040.16 135.186L1036.13 127.282C1036.13 127.282 1040.16 137.172 1032.08 147.068ZM1113.49 145.649C1113.59 134.704 1114.5 123.623 1116.19 112.704C1116.19 122.001 1116.77 131.403 1117.96 140.713C1116.99 143.207 1115.43 144.732 1113.49 145.649ZM1215.46 153.514C1215.41 153.372 1215.37 153.228 1215.33 153.084C1215.16 149.966 1215.04 146.919 1214.93 143.943C1215.68 147.276 1216.51 150.578 1217.46 153.788L1215.46 153.514ZM1395.22 131.416L1391 148.748C1390.74 149.784 1390.48 150.851 1390.23 151.919C1390.96 145.486 1391.16 139.086 1390.94 132.849C1390.4 118.577 1387.95 105.477 1385.36 92.6763C1385.99 106.115 1386.34 119.703 1384.88 132.289C1384.25 137.881 1383.19 143.272 1381.78 148.175C1376.38 145.864 1369.91 128.818 1366.69 119.417C1365.73 107.762 1364.93 96.0425 1364.26 84.2772C1372.69 75.8325 1387.44 63.2601 1397.6 66.9452C1405.32 69.7448 1411.7 92.0121 1416.09 113.296C1410.53 124.111 1405.22 135.388 1400.2 147.095L1401.11 133.819L1403.66 96.7586L1395.22 131.416ZM1410.99 144.601C1412.86 135.824 1414.91 127.093 1417.11 118.433C1419.13 128.91 1420.63 138.715 1421.53 145.324C1416.89 149.745 1412.63 146.319 1410.99 144.601ZM1455.95 158.306C1455.89 158.41 1455.84 158.509 1455.78 158.613L1455.76 158.606C1455.85 157.552 1455.92 156.496 1455.99 155.442C1455.98 156.399 1455.95 157.349 1455.95 158.306ZM1474.57 167.285C1473.3 166.764 1472.31 165.572 1471.89 163.353C1471.81 162.674 1471.73 161.998 1471.66 161.315C1471.38 153.196 1475.56 134.913 1470.69 137.25C1470.91 126.709 1471.93 116.109 1473.81 105.789C1478.09 126.084 1478.18 147.98 1474.57 167.285ZM1514.74 155.898C1510.31 153.729 1506.33 152.016 1506.33 152.016L1500.67 159.003C1502.17 155.083 1503.55 151.027 1504.71 146.762C1506.77 139.229 1508.09 131.273 1508.47 123.271C1508.76 117.112 1508.43 110.926 1507.43 105.203C1510.85 115.497 1513.49 126.442 1514.54 137.543C1515.15 143.722 1515.21 149.953 1514.74 155.898ZM1535.82 105.438C1535.81 105.457 1535.81 105.47 1535.81 105.483C1535.79 105.386 1535.76 105.301 1535.75 105.203C1535.77 105.281 1535.8 105.36 1535.82 105.438ZM1542.45 161.432L1542.37 161.34C1542.37 161.34 1533.81 164.498 1529.24 164.603C1529.65 161.315 1530.08 158.026 1530.53 154.738C1531.42 152.147 1532.28 149.504 1533.03 146.762C1535.08 139.229 1536.41 131.273 1536.78 123.271C1536.9 120.725 1536.88 118.186 1536.79 115.66C1537.07 114.169 1537.32 112.678 1537.61 111.193C1540.1 119.703 1542 128.571 1542.86 137.543C1543.64 145.662 1543.54 153.898 1542.45 161.432ZM1562.19 163.502L1557.36 166.1C1559.09 152.153 1561.14 138.272 1563.52 124.502C1564.66 137.725 1564.17 151.079 1562.19 163.502ZM1571.61 158.437L1570.28 159.159C1569.84 141.404 1571.2 123.297 1574.38 105.783C1574.13 117.698 1575.28 129.782 1577.74 141.293C1576.01 147.355 1573.96 153.097 1571.61 158.437ZM1583.51 168.854C1584.06 167.63 1584.6 166.386 1585.14 165.136C1585.65 166.321 1586.15 167.486 1586.69 168.639C1585.62 168.788 1584.55 168.867 1583.51 168.854ZM1588.11 132.992C1587.63 134.177 1587.16 135.349 1586.65 136.475C1585.7 133.656 1584.81 130.772 1584.06 127.77C1584.44 122.763 1584.62 117.743 1584.58 112.749C1586.13 118.212 1587.41 123.812 1588.33 129.489C1588.23 130.641 1588.17 131.813 1588.11 132.992ZM1607.35 165.235C1607.51 164.856 1607.68 164.479 1607.84 164.102C1607.86 164.583 1607.87 165.071 1607.89 165.553C1607.71 165.461 1607.53 165.332 1607.35 165.235ZM1607.65 139.04C1608.14 135.961 1608.63 132.881 1609.15 129.814C1608.83 132.399 1608.56 134.997 1608.34 137.621C1608.12 138.09 1607.89 138.572 1607.65 139.04ZM1622.74 165.078C1619.04 166.921 1614.16 168.092 1608.98 166.002L1616.44 164.01C1615.45 157.656 1614.81 151.111 1614.49 144.477C1616.2 137.628 1617.34 130.479 1617.68 123.278C1617.97 117.118 1617.65 110.933 1616.65 105.21C1620.06 115.503 1622.7 126.448 1623.76 137.55C1624.67 146.997 1624.37 156.6 1622.74 165.078ZM1638.82 161.692C1638.9 161.048 1638.98 160.396 1639.06 159.751C1639.11 160.416 1639.14 161.08 1639.16 161.744L1638.82 161.692Z" fill="white"/>
</svg>
