<svg width="484" height="248" viewBox="0 0 484 248" fill="none" xmlns="http://www.w3.org/2000/svg">
<path d="M43.5243 235.16L94.6617 184.022C95.7769 182.907 95.7769 181.098 94.6617 179.983L43.5243 128.846C42.1446 127.466 39.7876 128.443 39.7876 130.394V233.611C39.7876 235.562 42.1446 236.539 43.5243 235.16Z" fill="black"/>
<path d="M197.461 242.633L136.685 181.892L178.77 139.818C179.322 139.262 179.633 138.515 179.633 137.733V99.0746C179.633 97.4458 178.31 96.1235 176.682 96.1235H3.06821C1.87629 96.1235 0.799356 96.8402 0.343285 97.944C-0.112785 99.0477 0.140162 100.312 0.983317 101.159L17.1067 117.283C19.3028 119.479 22.2232 120.69 25.3313 120.69H156.273V126.446L102.921 179.814C101.771 180.968 101.771 182.834 102.921 183.984L163.199 244.262C165.395 246.458 168.315 247.669 171.423 247.669H195.377C196.568 247.669 197.645 246.952 198.101 245.849C198.558 244.745 198.305 243.476 197.461 242.633Z" fill="#FF9D00"/>
<path d="M136.222 96.1273V119.253C135.286 119.268 134.351 119.28 133.416 119.28C116.503 119.28 100.295 116.363 84.5285 110.515C53.5464 99.0209 29.9993 77.5626 14.5274 46.7414C12.1283 41.9585 4.94997 27.3489 0.841506 7.19748C0.481249 5.44218 0.216805 3.97816 0.0405087 2.97404C-0.0936296 2.24203 0.109494 1.48319 0.588559 0.900643C1.06762 0.329597 1.78431 0 2.53548 0H19.7703C20.9009 0 21.8936 0.751174 22.204 1.83578L25.0401 11.8195C26.2358 16.0084 27.7037 20.4887 29.5164 25.1873C31.8964 31.3539 34.4757 36.8727 37.0282 41.7247C47.445 60.3507 61.2152 73.9945 78.956 83.2232C71.7585 71.0128 68.0678 57.645 67.9758 43.4186C67.9758 42.6905 68.0256 42.1079 68.1214 41.5752C68.3322 40.3641 69.4092 39.4903 70.6394 39.4903H87.9011C89.3 39.4903 90.4306 40.6209 90.4306 42.0198C90.4382 45.3387 90.488 48.8647 91.0131 52.2679C94.8648 77.2062 112.437 93.7588 136.229 96.1273H136.222Z" fill="#FF9D00"/>
<path d="M228.827 183.294L241.206 161.706H249.595V202.304H241.206V176.197L231.467 194.148H226.186L216.505 176.197V202.304H208.058V161.706H216.448L228.827 183.294Z" fill="black"/>
<path d="M269.076 169.8H288.082V161.706H260.388V202.304H288.082V194.209H269.076V169.8Z" fill="black"/>
<path d="M313.307 161.706C326.215 161.706 333.666 169.861 333.666 182.003V182.06C333.666 194.144 326.215 202.3 313.307 202.3H297.41V161.702H313.307V161.706ZM306.091 194.148H313.307C320.758 194.148 325.042 189.277 325.042 182.064V182.007C325.042 174.732 320.761 169.861 313.307 169.861H306.091V194.148Z" fill="black"/>
<path d="M342.112 202.304V161.706H350.797V202.304H342.112Z" fill="black"/>
<path d="M400.662 202.304H391.51L388.225 193.796H370.565L367.338 202.304H358.186L374.731 161.706H384.059L400.662 202.304ZM379.422 170.62L373.321 186.169H385.466L379.422 170.62Z" fill="black"/>
<path d="M272.774 190.752L281.022 182.505C281.298 182.229 281.298 181.781 281.022 181.505L272.774 173.257C272.402 172.885 271.762 173.15 271.762 173.675V190.335C271.762 190.864 272.399 191.128 272.774 190.752Z" fill="#FF9D00"/>
<path d="M271.843 95.6292H271.782C258.119 95.6292 249.775 104.774 249.775 117.693V117.754C249.775 130.739 258.119 139.879 271.782 139.879H271.843C285.506 139.879 293.846 130.735 293.846 117.754V117.693C293.846 104.77 285.506 95.6292 271.843 95.6292ZM284.697 117.758C284.697 125.734 279.815 131.356 271.843 131.356H271.782C263.806 131.356 258.927 125.734 258.927 117.758V117.697C258.927 109.783 263.81 104.16 271.782 104.16H271.843C279.819 104.16 284.697 109.783 284.697 117.697V117.758Z" fill="black"/>
<path d="M298.605 96.3689V105.145H311.46V139.14H320.547V105.145H333.409V96.3689H298.605Z" fill="black"/>
<path d="M341.629 96.3689V139.14H350.774V96.3689H341.629Z" fill="black"/>
<path d="M378.901 96.3689H362.145V139.14H378.901C392.498 139.14 400.347 130.547 400.347 117.816V117.754C400.347 104.961 392.495 96.3689 378.901 96.3689ZM391.26 117.816C391.26 125.423 386.746 130.547 378.901 130.547H371.293V104.961H378.901C386.746 104.961 391.26 110.089 391.26 117.754V117.816Z" fill="black"/>
<path d="M418.391 104.9V113.42H430.617V122.089H418.391V130.612H438.42V139.144H409.247V96.3689H438.42V104.9H418.391Z" fill="black"/>
<path d="M243.716 139.144H233.522L224.868 125.293L219.966 117.452H225.604C230.49 117.452 233.518 115.654 233.518 111.024V110.955C233.518 106.448 230.49 104.586 225.604 104.586H217.203V139.14H208.058V96.365H225.607C236.553 96.365 242.67 101.868 242.67 110.952V111.021C242.67 117.57 239.52 122.085 233.644 124.12L243.716 139.14V139.144Z" fill="black"/>
<path d="M484 139.144H473.806L465.152 125.293L460.25 117.452H465.888C470.774 117.452 473.802 115.654 473.802 111.024V110.955C473.802 106.448 470.774 104.586 465.888 104.586H457.487V139.14H448.342V96.365H465.891C476.837 96.365 482.954 101.868 482.954 110.952V111.021C482.954 117.57 479.803 122.085 473.928 124.12L484 139.14V139.144Z" fill="black"/>
</svg>