<svg width="20" height="20" viewBox="0 0 20 20" fill="none" xmlns="http://www.w3.org/2000/svg">
<path d="M5.78375 4.16661C5.78345 4.8452 5.37175 5.45585 4.7428 5.71061C4.11385 5.96538 3.39324 5.81338 2.92077 5.32629C2.4483 4.8392 2.31831 4.11429 2.5921 3.49339C2.8659 2.87249 3.4888 2.47958 4.16709 2.49994C5.06798 2.52698 5.78416 3.26531 5.78375 4.16661ZM5.83375 7.06661H2.50042V17.4999H5.83375V7.06661ZM11.1004 7.06661H7.78375V17.4999H11.0671V12.0249C11.0671 8.97492 15.0421 8.69158 15.0421 12.0249V17.4999H18.3338V10.8916C18.3338 5.74994 12.4504 5.94161 11.0671 8.46658L11.1004 7.06661Z" fill="black"/>
</svg>
